<svg xmlns="http://www.w3.org/2000/svg" xmlns:xlink="http://www.w3.org/1999/xlink" xmlns:lucid="lucid" width="1659" height="1342"><g transform="translate(0 -224)" lucid:page-tab-id="0_0"><path d="M210 750a10 10 0 0 1 10-10h260a10 10 0 0 1 10 10v308a10 10 0 0 1-10 10H220a10 10 0 0 1-10-10z" fill="#fff"/><path d="M210 750a10 10 0 0 1 10-10h260a10 10 0 0 1 10 10v30H210z" fill="#ccc"/><path d="M210 780h280v33H210z" fill="#fff"/><path d="M210 812h280v33H210z" fill="#fff"/><path d="M210 844h280v33H210z" fill="#fff"/><path d="M210 876h280v33H210z" fill="#fff"/><path d="M210 908h280v33H210z" fill="#fff"/><path d="M210 940h280v33H210z" fill="#fff"/><path d="M210 972h280v33H210z" fill="#fff"/><path d="M210 1004h280v33H210z" fill="#fff"/><path d="M210 1036h280v22a10 10 0 0 1-10 10H220a10 10 0 0 1-10-10z" fill="#fff"/><path d="M210.5 780h279-279zM210 750a10 10 0 0 1 10-10h260a10 10 0 0 1 10 10v308a10 10 0 0 1-10 10H220a10 10 0 0 1-10-10zM350 780.5v287z" stroke="#333" fill="none"/><use xlink:href="#a" transform="matrix(1,0,0,1,220,740) translate(0 26.46701388888889)"/><use xlink:href="#b" transform="matrix(1,0,0,1,215,782.5) translate(0 19.96701388888889)"/><use xlink:href="#c" transform="matrix(1,0,0,1,355,782.5) translate(0 19.96701388888889)"/><use xlink:href="#d" transform="matrix(1,0,0,1,355,782.5) translate(57.93402777777778 19.96701388888889)"/><use xlink:href="#e" transform="matrix(1,0,0,1,215,814.5) translate(0 19.96701388888889)"/><use xlink:href="#f" transform="matrix(1,0,0,1,355,814.5) translate(0 19.96701388888889)"/><use xlink:href="#g" transform="matrix(1,0,0,1,355,814.5) translate(52.93402777777778 19.96701388888889)"/><use xlink:href="#h" transform="matrix(1,0,0,1,215,846.5) translate(0 19.96701388888889)"/><use xlink:href="#i" transform="matrix(1,0,0,1,355,846.5) translate(0 19.96701388888889)"/><use xlink:href="#j" transform="matrix(1,0,0,1,215,878.5) translate(0 19.96701388888889)"/><use xlink:href="#k" transform="matrix(1,0,0,1,355,878.5) translate(0 19.96701388888889)"/><use xlink:href="#l" transform="matrix(1,0,0,1,215,910.5) translate(0 19.96701388888889)"/><use xlink:href="#i" transform="matrix(1,0,0,1,355,910.5) translate(0 19.96701388888889)"/><use xlink:href="#m" transform="matrix(1,0,0,1,215,942.5) translate(0 19.96701388888889)"/><use xlink:href="#n" transform="matrix(1,0,0,1,355,942.5) translate(0 19.96701388888889)"/><use xlink:href="#o" transform="matrix(1,0,0,1,215,974.5) translate(0 19.96701388888889)"/><use xlink:href="#p" transform="matrix(1,0,0,1,355,974.5) translate(0 19.96701388888889)"/><use xlink:href="#q" transform="matrix(1,0,0,1,215,1006.5) translate(0 19.96701388888889)"/><use xlink:href="#r" transform="matrix(1,0,0,1,355,1006.5) translate(0 19.96701388888889)"/><use xlink:href="#s" transform="matrix(1,0,0,1,215,1038.5) translate(0 19.96701388888889)"/><use xlink:href="#t" transform="matrix(1,0,0,1,355,1038.5) translate(0 19.96701388888889)"/><path d="M700 370a10 10 0 0 1 10-10h260a10 10 0 0 1 10 10v180a10 10 0 0 1-10 10H710a10 10 0 0 1-10-10z" fill="#fff"/><path d="M700 370a10 10 0 0 1 10-10h260a10 10 0 0 1 10 10v30H700z" fill="#ccc"/><path d="M700 400h280v33H700z" fill="#fff"/><path d="M700 432h280v33H700z" fill="#fff"/><path d="M700 464h280v33H700z" fill="#fff"/><path d="M700 496h280v33H700z" fill="#fff"/><path d="M700 528h280v22a10 10 0 0 1-10 10H710a10 10 0 0 1-10-10z" fill="#fff"/><path d="M700.5 400h279-279zM700 370a10 10 0 0 1 10-10h260a10 10 0 0 1 10 10v180a10 10 0 0 1-10 10H710a10 10 0 0 1-10-10zM840 400.5v159z" stroke="#333" fill="none"/><use xlink:href="#u" transform="matrix(1,0,0,1,710,360) translate(0 26.46701388888889)"/><use xlink:href="#b" transform="matrix(1,0,0,1,705,402.5) translate(0 19.96701388888889)"/><use xlink:href="#f" transform="matrix(1,0,0,1,845,402.5) translate(0 19.96701388888889)"/><use xlink:href="#d" transform="matrix(1,0,0,1,845,402.5) translate(52.93402777777778 19.96701388888889)"/><use xlink:href="#v" transform="matrix(1,0,0,1,705,434.5) translate(0 19.96701388888889)"/><use xlink:href="#i" transform="matrix(1,0,0,1,845,434.5) translate(0 19.96701388888889)"/><use xlink:href="#w" transform="matrix(1,0,0,1,705,466.5) translate(0 19.96701388888889)"/><use xlink:href="#x" transform="matrix(1,0,0,1,845,466.5) translate(0 19.96701388888889)"/><use xlink:href="#y" transform="matrix(1,0,0,1,705,498.5) translate(0 19.96701388888889)"/><use xlink:href="#r" transform="matrix(1,0,0,1,845,498.5) translate(0 19.96701388888889)"/><use xlink:href="#s" transform="matrix(1,0,0,1,705,530.5) translate(0 19.96701388888889)"/><use xlink:href="#z" transform="matrix(1,0,0,1,845,530.5) translate(0 19.96701388888889)"/><path d="M620 1210a10 10 0 0 1 10-10h300a10 10 0 0 1 10 10v276a10 10 0 0 1-10 10H630a10 10 0 0 1-10-10z" fill="#fff"/><path d="M620 1210a10 10 0 0 1 10-10h300a10 10 0 0 1 10 10v30H620z" fill="#ccc"/><path d="M620 1240h320v33H620z" fill="#fff"/><path d="M620 1272h320v33H620z" fill="#fff"/><path d="M620 1304h320v33H620z" fill="#fff"/><path d="M620 1336h320v33H620z" fill="#fff"/><path d="M620 1368h320v33H620z" fill="#fff"/><path d="M620 1400h320v33H620z" fill="#fff"/><path d="M620 1432h320v33H620z" fill="#fff"/><path d="M620 1464h320v22a10 10 0 0 1-10 10H630a10 10 0 0 1-10-10z" fill="#fff"/><path d="M620.5 1240h319-319zM620 1210a10 10 0 0 1 10-10h300a10 10 0 0 1 10 10v276a10 10 0 0 1-10 10H630a10 10 0 0 1-10-10zM772.87 1240.5v255z" stroke="#333" fill="none"/><use xlink:href="#A" transform="matrix(1,0,0,1,630,1200) translate(0 26.46701388888889)"/><use xlink:href="#b" transform="matrix(1,0,0,1,625,1242.5) translate(0 19.96701388888889)"/><use xlink:href="#f" transform="matrix(1,0,0,1,777.868332774997,1242.5) translate(0 19.96701388888889)"/><use xlink:href="#d" transform="matrix(1,0,0,1,777.868332774997,1242.5) translate(52.93402777777778 19.96701388888889)"/><use xlink:href="#B" transform="matrix(1,0,0,1,625,1274.5) translate(0 19.96701388888889)"/><use xlink:href="#C" transform="matrix(1,0,0,1,777.868332774997,1274.5) translate(0 19.96701388888889)"/><use xlink:href="#D" transform="matrix(1,0,0,1,625,1306.5) translate(0 19.96701388888889)"/><use xlink:href="#i" transform="matrix(1,0,0,1,777.868332774997,1306.5) translate(0 19.96701388888889)"/><use xlink:href="#E" transform="matrix(1,0,0,1,625,1338.5) translate(0 19.96701388888889)"/><use xlink:href="#C" transform="matrix(1,0,0,1,777.868332774997,1338.5) translate(0 19.96701388888889)"/><use xlink:href="#F" transform="matrix(1,0,0,1,625,1370.5) translate(0 19.96701388888889)"/><use xlink:href="#G" transform="matrix(1,0,0,1,777.868332774997,1370.5) translate(0 19.96701388888889)"/><use xlink:href="#H" transform="matrix(1,0,0,1,625,1402.5) translate(0 19.96701388888889)"/><use xlink:href="#G" transform="matrix(1,0,0,1,777.868332774997,1402.5) translate(0 19.96701388888889)"/><use xlink:href="#I" transform="matrix(1,0,0,1,625,1434.5) translate(0 19.96701388888889)"/><use xlink:href="#G" transform="matrix(1,0,0,1,777.868332774997,1434.5) translate(0 19.96701388888889)"/><use xlink:href="#J" transform="matrix(1,0,0,1,625,1466.5) translate(0 19.96701388888889)"/><use xlink:href="#K" transform="matrix(1,0,0,1,777.868332774997,1466.5) translate(0 19.96701388888889)"/><path d="M700 630a10 10 0 0 1 10-10h300a10 10 0 0 1 10 10v436a10 10 0 0 1-10 10H710a10 10 0 0 1-10-10z" fill="#fff"/><path d="M700 630a10 10 0 0 1 10-10h300a10 10 0 0 1 10 10v30H700z" fill="#ccc"/><path d="M700 660h320v33H700z" fill="#fff"/><path d="M700 692h320v33H700z" fill="#fff"/><path d="M700 724h320v33H700z" fill="#fff"/><path d="M700 756h320v33H700z" fill="#fff"/><path d="M700 788h320v33H700z" fill="#fff"/><path d="M700 820h320v33H700z" fill="#fff"/><path d="M700 852h320v33H700z" fill="#fff"/><path d="M700 884h320v33H700z" fill="#fff"/><path d="M700 916h320v33H700z" fill="#fff"/><path d="M700 948h320v33H700z" fill="#fff"/><path d="M700 980h320v33H700z" fill="#fff"/><path d="M700 1012h320v33H700z" fill="#fff"/><path d="M700 1044h320v22a10 10 0 0 1-10 10H710a10 10 0 0 1-10-10z" fill="#fff"/><path d="M700.5 660h319-319zM700 630a10 10 0 0 1 10-10h300a10 10 0 0 1 10 10v436a10 10 0 0 1-10 10H710a10 10 0 0 1-10-10zM852.87 660.5v415z" stroke="#333" fill="none"/><use xlink:href="#L" transform="matrix(1,0,0,1,710,620) translate(0 26.46701388888889)"/><use xlink:href="#b" transform="matrix(1,0,0,1,705,662.5) translate(0 19.96701388888889)"/><use xlink:href="#f" transform="matrix(1,0,0,1,857.868332774997,662.5) translate(0 19.96701388888889)"/><use xlink:href="#d" transform="matrix(1,0,0,1,857.868332774997,662.5) translate(52.93402777777778 19.96701388888889)"/><use xlink:href="#M" transform="matrix(1,0,0,1,705,694.5) translate(0 19.96701388888889)"/><use xlink:href="#f" transform="matrix(1,0,0,1,857.868332774997,694.5) translate(0 19.96701388888889)"/><use xlink:href="#g" transform="matrix(1,0,0,1,857.868332774997,694.5) translate(52.93402777777778 19.96701388888889)"/><use xlink:href="#N" transform="matrix(1,0,0,1,705,726.5) translate(0 19.96701388888889)"/><use xlink:href="#f" transform="matrix(1,0,0,1,857.868332774997,726.5) translate(0 19.96701388888889)"/><use xlink:href="#g" transform="matrix(1,0,0,1,857.868332774997,726.5) translate(52.93402777777778 19.96701388888889)"/><use xlink:href="#O" transform="matrix(1,0,0,1,705,758.5) translate(0 19.96701388888889)"/><use xlink:href="#f" transform="matrix(1,0,0,1,857.868332774997,758.5) translate(0 19.96701388888889)"/><use xlink:href="#g" transform="matrix(1,0,0,1,857.868332774997,758.5) translate(52.93402777777778 19.96701388888889)"/><use xlink:href="#P" transform="matrix(1,0,0,1,705,790.5) translate(0 19.96701388888889)"/><use xlink:href="#f" transform="matrix(1,0,0,1,857.868332774997,790.5) translate(0 19.96701388888889)"/><use xlink:href="#g" transform="matrix(1,0,0,1,857.868332774997,790.5) translate(52.93402777777778 19.96701388888889)"/><use xlink:href="#Q" transform="matrix(1,0,0,1,705,822.5) translate(0 19.96701388888889)"/><use xlink:href="#p" transform="matrix(1,0,0,1,857.868332774997,822.5) translate(0 19.96701388888889)"/><use xlink:href="#R" transform="matrix(1,0,0,1,705,854.5) translate(0 19.96701388888889)"/><use xlink:href="#p" transform="matrix(1,0,0,1,857.868332774997,854.5) translate(0 19.96701388888889)"/><use xlink:href="#S" transform="matrix(1,0,0,1,705,886.5) translate(0 19.96701388888889)"/><use xlink:href="#t" transform="matrix(1,0,0,1,857.868332774997,886.5) translate(0 19.96701388888889)"/><use xlink:href="#T" transform="matrix(1,0,0,1,705,918.5) translate(0 19.96701388888889)"/><use xlink:href="#i" transform="matrix(1,0,0,1,857.868332774997,918.5) translate(0 19.96701388888889)"/><use xlink:href="#w" transform="matrix(1,0,0,1,705,950.5) translate(0 19.96701388888889)"/><use xlink:href="#x" transform="matrix(1,0,0,1,857.868332774997,950.5) translate(0 19.96701388888889)"/><use xlink:href="#U" transform="matrix(1,0,0,1,705,982.5) translate(0 19.96701388888889)"/><use xlink:href="#r" transform="matrix(1,0,0,1,857.868332774997,982.5) translate(0 19.96701388888889)"/><use xlink:href="#V" transform="matrix(1,0,0,1,705,1014.5) translate(0 19.96701388888889)"/><use xlink:href="#r" transform="matrix(1,0,0,1,857.868332774997,1014.5) translate(0 19.96701388888889)"/><use xlink:href="#W" transform="matrix(1,0,0,1,705,1046.5) translate(0 19.96701388888889)"/><use xlink:href="#r" transform="matrix(1,0,0,1,857.868332774997,1046.5) translate(0 19.96701388888889)"/><path d="M160 310a10 10 0 0 1 10-10h340a10 10 0 0 1 10 10v244a10 10 0 0 1-10 10H170a10 10 0 0 1-10-10z" fill="#fff"/><path d="M160 310a10 10 0 0 1 10-10h340a10 10 0 0 1 10 10v30H160z" fill="#ccc"/><path d="M160 340h360v33H160z" fill="#fff"/><path d="M160 372h360v33H160z" fill="#fff"/><path d="M160 404h360v33H160z" fill="#fff"/><path d="M160 436h360v33H160z" fill="#fff"/><path d="M160 468h360v33H160z" fill="#fff"/><path d="M160 500h360v33H160z" fill="#fff"/><path d="M160 532h360v22a10 10 0 0 1-10 10H170a10 10 0 0 1-10-10z" fill="#fff"/><path d="M160.5 340h359-359zM160 310a10 10 0 0 1 10-10h340a10 10 0 0 1 10 10v244a10 10 0 0 1-10 10H170a10 10 0 0 1-10-10zM346 340.5v223z" stroke="#333" fill="none"/><use xlink:href="#X" transform="matrix(1,0,0,1,170,300) translate(0 26.46701388888889)"/><use xlink:href="#b" transform="matrix(1,0,0,1,165,342.5) translate(0 19.96701388888889)"/><use xlink:href="#c" transform="matrix(1,0,0,1,350.99999999999994,342.5) translate(0 19.96701388888889)"/><use xlink:href="#d" transform="matrix(1,0,0,1,350.99999999999994,342.5) translate(57.93402777777778 19.96701388888889)"/><use xlink:href="#Y" transform="matrix(1,0,0,1,165,374.5) translate(0 19.96701388888889)"/><use xlink:href="#f" transform="matrix(1,0,0,1,350.99999999999994,374.5) translate(0 19.96701388888889)"/><use xlink:href="#g" transform="matrix(1,0,0,1,350.99999999999994,374.5) translate(52.93402777777778 19.96701388888889)"/><use xlink:href="#Z" transform="matrix(1,0,0,1,165,406.5) translate(0 19.96701388888889)"/><use xlink:href="#f" transform="matrix(1,0,0,1,350.99999999999994,406.5) translate(0 19.96701388888889)"/><use xlink:href="#g" transform="matrix(1,0,0,1,350.99999999999994,406.5) translate(52.93402777777778 19.96701388888889)"/><use xlink:href="#aa" transform="matrix(1,0,0,1,165,438.5) translate(0 19.96701388888889)"/><use xlink:href="#x" transform="matrix(1,0,0,1,350.99999999999994,438.5) translate(0 19.96701388888889)"/><use xlink:href="#ab" transform="matrix(1,0,0,1,165,470.5) translate(0 19.96701388888889)"/><use xlink:href="#p" transform="matrix(1,0,0,1,350.99999999999994,470.5) translate(0 19.96701388888889)"/><use xlink:href="#ac" transform="matrix(1,0,0,1,165,502.5) translate(0 19.96701388888889)"/><use xlink:href="#p" transform="matrix(1,0,0,1,350.99999999999994,502.5) translate(0 19.96701388888889)"/><use xlink:href="#ad" transform="matrix(1,0,0,1,165,534.5) translate(0 19.96701388888889)"/><use xlink:href="#r" transform="matrix(1,0,0,1,350.99999999999994,534.5) translate(0 19.96701388888889)"/><path d="M1220 597.5a10 10 0 0 1 10-10h340a10 10 0 0 1 10 10v180a10 10 0 0 1-10 10h-340a10 10 0 0 1-10-10z" fill="#fff"/><path d="M1220 597.5a10 10 0 0 1 10-10h340a10 10 0 0 1 10 10v30h-360z" fill="#ccc"/><path d="M1220 627.5h360v33h-360z" fill="#fff"/><path d="M1220 659.5h360v33h-360z" fill="#fff"/><path d="M1220 691.5h360v33h-360z" fill="#fff"/><path d="M1220 723.5h360v33h-360z" fill="#fff"/><path d="M1220 755.5h360v22a10 10 0 0 1-10 10h-340a10 10 0 0 1-10-10z" fill="#fff"/><path d="M1220.5 627.5h359-359zM1220 597.5a10 10 0 0 1 10-10h340a10 10 0 0 1 10 10v180a10 10 0 0 1-10 10h-340a10 10 0 0 1-10-10zM1372.87 628v159z" stroke="#333" fill="none"/><use xlink:href="#ae" transform="matrix(1,0,0,1,1230,587.4958333333334) translate(0 26.46701388888889)"/><use xlink:href="#b" transform="matrix(1,0,0,1,1225,629.9958333333334) translate(0 19.96701388888889)"/><use xlink:href="#f" transform="matrix(1,0,0,1,1377.868332774997,629.9958333333334) translate(0 19.96701388888889)"/><use xlink:href="#d" transform="matrix(1,0,0,1,1377.868332774997,629.9958333333334) translate(52.93402777777778 19.96701388888889)"/><use xlink:href="#Y" transform="matrix(1,0,0,1,1225,661.9958333333334) translate(0 19.96701388888889)"/><use xlink:href="#f" transform="matrix(1,0,0,1,1377.868332774997,661.9958333333334) translate(0 19.96701388888889)"/><use xlink:href="#g" transform="matrix(1,0,0,1,1377.868332774997,661.9958333333334) translate(52.93402777777778 19.96701388888889)"/><use xlink:href="#af" transform="matrix(1,0,0,1,1225,693.9958333333334) translate(0 19.96701388888889)"/><use xlink:href="#n" transform="matrix(1,0,0,1,1377.868332774997,693.9958333333334) translate(0 19.96701388888889)"/><use xlink:href="#ag" transform="matrix(1,0,0,1,1225,725.9958333333334) translate(0 19.96701388888889)"/><use xlink:href="#ah" transform="matrix(1,0,0,1,1377.868332774997,725.9958333333334) translate(0 19.96701388888889)"/><use xlink:href="#ai" transform="matrix(1,0,0,1,1225,757.9958333333334) translate(0 19.96701388888889)"/><use xlink:href="#r" transform="matrix(1,0,0,1,1377.868332774997,757.9958333333334) translate(0 19.96701388888889)"/><path d="M140 1170a10 10 0 0 1 10-10h300a10 10 0 0 1 10 10v212a10 10 0 0 1-10 10H150a10 10 0 0 1-10-10z" fill="#fff"/><path d="M140 1170a10 10 0 0 1 10-10h300a10 10 0 0 1 10 10v30H140z" fill="#ccc"/><path d="M140 1200h320v33H140z" fill="#fff"/><path d="M140 1232h320v33H140z" fill="#fff"/><path d="M140 1264h320v33H140z" fill="#fff"/><path d="M140 1296h320v33H140z" fill="#fff"/><path d="M140 1328h320v33H140z" fill="#fff"/><path d="M140 1360h320v22a10 10 0 0 1-10 10H150a10 10 0 0 1-10-10z" fill="#fff"/><path d="M140.5 1200h319-319zM140 1170a10 10 0 0 1 10-10h300a10 10 0 0 1 10 10v212a10 10 0 0 1-10 10H150a10 10 0 0 1-10-10zM292.87 1200.5v191z" stroke="#333" fill="none"/><use xlink:href="#aj" transform="matrix(1,0,0,1,150,1160) translate(0 26.46701388888889)"/><use xlink:href="#b" transform="matrix(1,0,0,1,145,1202.5) translate(0 19.96701388888889)"/><use xlink:href="#f" transform="matrix(1,0,0,1,297.86833277499704,1202.5) translate(0 19.96701388888889)"/><use xlink:href="#d" transform="matrix(1,0,0,1,297.86833277499704,1202.5) translate(52.93402777777778 19.96701388888889)"/><use xlink:href="#ak" transform="matrix(1,0,0,1,145,1234.5) translate(0 19.96701388888889)"/><use xlink:href="#f" transform="matrix(1,0,0,1,297.86833277499704,1234.5) translate(0 19.96701388888889)"/><use xlink:href="#g" transform="matrix(1,0,0,1,297.86833277499704,1234.5) translate(52.93402777777778 19.96701388888889)"/><use xlink:href="#al" transform="matrix(1,0,0,1,145,1266.5) translate(0 19.96701388888889)"/><use xlink:href="#G" transform="matrix(1,0,0,1,297.86833277499704,1266.5) translate(0 19.96701388888889)"/><use xlink:href="#am" transform="matrix(1,0,0,1,145,1298.5) translate(0 19.96701388888889)"/><use xlink:href="#ah" transform="matrix(1,0,0,1,297.86833277499704,1298.5) translate(0 19.96701388888889)"/><use xlink:href="#an" transform="matrix(1,0,0,1,145,1330.5) translate(0 19.96701388888889)"/><use xlink:href="#ao" transform="matrix(1,0,0,1,297.86833277499704,1330.5) translate(0 19.96701388888889)"/><use xlink:href="#ap" transform="matrix(1,0,0,1,145,1362.5) translate(0 19.96701388888889)"/><use xlink:href="#r" transform="matrix(1,0,0,1,297.86833277499704,1362.5) translate(0 19.96701388888889)"/><path d="M189.5 796H152a12 12 0 0 0-12 12v8a12 12 0 0 0 12 12h18M209.5 796h-20m10-10v20m-10-20v20" stroke="#333" fill="none"/><path d="M209.5 828h-20m10-10v20m-30-9.9v-.1a10 10 0 0 1 10-10 10 10 0 0 1 10 10 10 10 0 0 1-10 10 10 10 0 0 1-10-10v-.1" stroke="#333" fill="#fff"/><path d="M1000.5 416h48a12 12 0 0 1 12 12v268a12 12 0 0 1-12 12h-8M980.5 416h20m-10 10v-20m10 20v-20M1020.72 708h20m-20 10l20-10m-20-10l20 10m0 10v-20M510.5 760h9.74a10.26 10.26 0 0 0 10.26-10.26 10.26 10.26 0 0 1 10.26-10.25h118.48a.26.26 0 0 1 .26.24v.26M490.5 760h20m-10 10v-20m10 20v-20" stroke="#333" fill="none"/><path d="M699.28 740h-20m20-10l-20 10m20 10l-20-10m-20 .1v-.1a10 10 0 0 1 10-10 10 10 0 0 1 10 10 10 10 0 0 1-10 10 10 10 0 0 1-10-10v-.1" stroke="#333" fill="#fff"/><path d="M530 796a.5.5 0 0 0 .5-.5v-9.7a10.2 10.2 0 0 1 10.2-10.2h117a1.8 1.8 0 0 0 1.8-1.8V772" stroke="#333" fill="none"/><path d="M490.5 796h20m-10 10v-20m10 10.1v-.1a10 10 0 0 1 10-10 10 10 0 0 1 10 10 10 10 0 0 1-10 10 10 10 0 0 1-10-10v-.1M699.28 772h-20m20-10l-20 10m20 10l-20-10m-20 .1v-.1a10 10 0 0 1 10-10 10 10 0 0 1 10 10 10 10 0 0 1-10 10 10 10 0 0 1-10-10v-.1" stroke="#333" fill="#fff"/><path d="M599.5 1255.7h-8a12 12 0 0 1-12-12V816a12 12 0 0 1 12-12h68M619.5 1255.7h-20m10-10v20m-10-20v20" stroke="#333" fill="none"/><path d="M699.28 804h-20m20-10l-20 10m20 10l-20-10m-20 .1v-.1a10 10 0 0 1 10-10 10 10 0 0 1 10 10 10 10 0 0 1-10 10 10 10 0 0 1-10-10v-.1" stroke="#333" fill="#fff"/><path d="M679.5 676H622a12 12 0 0 1-12-12V400a12 12 0 0 0-12-12h-57.5M699.5 676h-20m10-10v20m-10-20v20M520.72 388h20m-20 10l20-10m-20-10l20 10m0 10v-20M119.5 420v328a12 12 0 0 0 12 12h58" stroke="#333" fill="none"/><path d="M159.28 420h-20m20-10l-20 10m20 10l-20-10m-20 .1v-.1a10 10 0 0 1 10-10 10 10 0 0 1 10 10 10 10 0 0 1-10 10 10 10 0 0 1-10-10v-.1" stroke="#333" fill="#fff"/><path d="M209.5 760h-20m10-10v20m-10-20v20M350 719.5v-8a12 12 0 0 0-12-12H111.5a12 12 0 0 0-12 12V1204a12 12 0 0 0 12 12h8.6M350 739.5v-20m10 0h-20M139.28 1216h-20m20-10l-20 10m20 10l-20-10M1040.5 675.46h19.73a.27.27 0 0 1 .27.27.27.27 0 0 0 .27.27h118.48a.25.25 0 0 0 .25-.25v-.25M1020.5 675.46h20m-10 10v-20m10 20v-20" stroke="#333" fill="none"/><path d="M1219.28 675.5h-20m20-10l-20 10m20 10l-20-10m-20 .1v-.1a10 10 0 0 1 10-10 10 10 0 0 1 10 10 10 10 0 0 1-10 10 10 10 0 0 1-10-10v-.1" stroke="#333" fill="#fff"/><defs><path d="M537 14c-226 0-379-139-379-422v-710h180v695c0 172 97 275 253 275 160 0 281-109 281-300v-670h181V0H879v-209C806-46 684 14 537 14" id="aq"/><path d="M538 24C308 24 148-78 108-271l171-41c32 123 123 178 257 178 156 0 256-77 256-169 0-77-54-128-164-154l-186-44c-203-48-300-148-300-305 0-192 176-326 414-326 230 0 351 112 402 269l-163 42c-31-80-94-158-238-158-133 0-233 69-233 162 0 83 57 129 188 160l169 40c203 48 298 149 298 302 0 196-179 339-441 339" id="ar"/><path d="M471 26C259 26 90-98 90-318c0-256 228-303 435-329 202-27 287-16 287-108 0-139-79-219-234-219-161 0-248 86-283 164l-173-57c86-203 278-265 451-265 150 0 419 46 419 395V0H815v-152h-12C765-73 660 26 471 26zm31-159c199 0 310-134 310-271v-155c-30 35-226 55-295 64-131 17-246 59-246 186 0 116 97 176 231 176" id="as"/><path d="M158 0v-1118h174v172h12c41-113 157-188 290-188 26 0 70 2 91 3v181c-11-2-60-10-108-10-161 0-279 109-279 260V0H158" id="at"/><path d="M158 0v-1118h180V0H158zm91-1301c-68 0-125-53-125-119s57-119 125-119c69 0 126 53 126 119s-57 119-126 119" id="au"/><path d="M613 24c-304 0-509-231-509-576 0-350 205-580 509-580 305 0 511 230 511 580 0 345-206 576-511 576zm0-161c226 0 329-195 329-415 0-222-103-419-329-419-223 0-326 196-326 419 0 220 103 415 326 415" id="av"/><g id="a"><use transform="matrix(0.008680555555555556,0,0,0.008680555555555556,0,0)" xlink:href="#aq"/><use transform="matrix(0.008680555555555556,0,0,0.008680555555555556,10.512152777777779,0)" xlink:href="#ar"/><use transform="matrix(0.008680555555555556,0,0,0.008680555555555556,19.895833333333336,0)" xlink:href="#aq"/><use transform="matrix(0.008680555555555556,0,0,0.008680555555555556,30.40798611111111,0)" xlink:href="#as"/><use transform="matrix(0.008680555555555556,0,0,0.008680555555555556,40.390625,0)" xlink:href="#at"/><use transform="matrix(0.008680555555555556,0,0,0.008680555555555556,47.361111111111114,0)" xlink:href="#au"/><use transform="matrix(0.008680555555555556,0,0,0.008680555555555556,51.66666666666667,0)" xlink:href="#av"/><use transform="matrix(0.008680555555555556,0,0,0.008680555555555556,62.32638888888889,0)" xlink:href="#ar"/></g><path d="M577 24c-279 0-473-224-473-580 0-354 195-576 474-576 218 0 287 134 324 193h14v-551h180V0H922v-173h-20C865-111 790 24 577 24zm27-161c203 0 314-172 314-421 0-247-108-413-314-413-212 0-317 181-317 413 0 235 108 421 317 421" id="aw"/><g id="b"><use transform="matrix(0.008680555555555556,0,0,0.008680555555555556,0,0)" xlink:href="#au"/><use transform="matrix(0.008680555555555556,0,0,0.008680555555555556,4.305555555555555,0)" xlink:href="#aw"/></g><path d="M180 0v-1490h528c311 0 458 177 458 395 0 191-114 278-244 313v14c139 9 302 137 302 371 0 225-148 397-499 397H180zm190-168h350c232 0 321-102 321-231 0-149-120-277-311-277H370v508zm0-668h328c160 0 286-101 286-255 0-129-87-231-280-231H370v486" id="ax"/><path d="M611 442c-248 0-391-105-460-228l146-94c47 65 117 165 314 165 178 0 307-82 307-266v-224h-17C863-141 792-18 576-18c-268 0-472-195-472-546 0-346 197-568 476-568 216 0 288 133 326 193h17v-179h175V29c0 289-215 413-487 413zm-5-620c203 0 314-146 314-390 0-237-108-403-314-403-213 0-319 180-319 403 0 230 109 390 319 390" id="ay"/><path d="M370-1490V0H180v-1490h190" id="az"/><path d="M338-670V0H158v-1118h173l1 207c72-158 192-221 342-221 226 0 378 139 378 422V0H872v-695c0-172-96-275-252-275-161 0-282 109-282 300" id="aA"/><path d="M598-1118v154H368v674c0 100 37 144 132 144 23 0 62-6 92-12L629-6c-37 13-88 20-134 20-193 0-307-107-307-290v-688H20v-154h168v-266h180v266h230" id="aB"/><g id="c"><use transform="matrix(0.008680555555555556,0,0,0.008680555555555556,0,0)" xlink:href="#ax"/><use transform="matrix(0.008680555555555556,0,0,0.008680555555555556,11.631944444444445,0)" xlink:href="#au"/><use transform="matrix(0.008680555555555556,0,0,0.008680555555555556,15.9375,0)" xlink:href="#ay"/><use transform="matrix(0.008680555555555556,0,0,0.008680555555555556,26.84027777777778,0)" xlink:href="#az"/><use transform="matrix(0.008680555555555556,0,0,0.008680555555555556,31.614583333333336,0)" xlink:href="#aA"/><use transform="matrix(0.008680555555555556,0,0,0.008680555555555556,42.11805555555556,0)" xlink:href="#aB"/></g><path d="M218-607c0-325 108-727 258-974h175c-155 315-250 682-250 974 0 265 78 531 250 886H476C306-10 218-315 218-607" id="aC"/><path d="M180 0v-1490h510c348 0 508 209 508 474 0 266-160 477-507 477H370V0H180zm190-706h312c236 0 327-133 327-310 0-176-91-307-329-307H370v617" id="aD"/><path d="M180 0v-1490h190c0 262 1 526-3 784 217-279 467-523 702-784h249L716-845 1319 0h-225L585-716 370-489V0H180" id="aE"/><path d="M96 279C273-86 346-350 346-607c0-292-95-659-250-974h175c150 246 258 650 258 974 0 297-91 602-258 886H96" id="aF"/><g id="d"><use transform="matrix(0.008680555555555556,0,0,0.008680555555555556,0,0)" xlink:href="#aC"/><use transform="matrix(0.008680555555555556,0,0,0.008680555555555556,6.484375,0)" xlink:href="#aD"/><use transform="matrix(0.008680555555555556,0,0,0.008680555555555556,17.838541666666668,0)" xlink:href="#aE"/><use transform="matrix(0.008680555555555556,0,0,0.008680555555555556,29.78298611111111,0)" xlink:href="#aF"/></g><path d="M613 24c-304 0-509-231-509-576 0-350 205-580 509-580 216 0 392 114 453 309l-173 49c-33-115-133-197-280-197-223 0-326 196-326 419 0 220 103 415 326 415 150 0 252-85 285-206l172 49C1010-95 832 24 613 24" id="aG"/><path d="M934 0v166H0V0h934" id="aH"/><path d="M158 418v-1536h174v179h20c37-59 106-193 324-193 279 0 474 222 474 576 0 356-194 580-473 580-213 0-288-135-325-197h-14v591H158zm492-555c209 0 317-186 317-421 0-232-105-413-317-413-206 0-314 166-314 413 0 249 111 421 314 421" id="aI"/><g id="e"><use transform="matrix(0.008680555555555556,0,0,0.008680555555555556,0,0)" xlink:href="#aG"/><use transform="matrix(0.008680555555555556,0,0,0.008680555555555556,10.15625,0)" xlink:href="#at"/><use transform="matrix(0.008680555555555556,0,0,0.008680555555555556,17.126736111111114,0)" xlink:href="#au"/><use transform="matrix(0.008680555555555556,0,0,0.008680555555555556,21.43229166666667,0)" xlink:href="#as"/><use transform="matrix(0.008680555555555556,0,0,0.008680555555555556,31.41493055555556,0)" xlink:href="#aw"/><use transform="matrix(0.008680555555555556,0,0,0.008680555555555556,42.30034722222223,0)" xlink:href="#av"/><use transform="matrix(0.008680555555555556,0,0,0.008680555555555556,52.96006944444445,0)" xlink:href="#aH"/><use transform="matrix(0.008680555555555556,0,0,0.008680555555555556,61.66666666666667,0)" xlink:href="#aI"/><use transform="matrix(0.008680555555555556,0,0,0.008680555555555556,72.55208333333334,0)" xlink:href="#av"/><use transform="matrix(0.008680555555555556,0,0,0.008680555555555556,83.21180555555557,0)" xlink:href="#at"/></g><g id="f"><use transform="matrix(0.008680555555555556,0,0,0.008680555555555556,0,0)" xlink:href="#ax"/><use transform="matrix(0.008680555555555556,0,0,0.008680555555555556,11.631944444444445,0)" xlink:href="#au"/><use transform="matrix(0.008680555555555556,0,0,0.008680555555555556,15.9375,0)" xlink:href="#ay"/><use transform="matrix(0.008680555555555556,0,0,0.008680555555555556,26.84027777777778,0)" xlink:href="#az"/><use transform="matrix(0.008680555555555556,0,0,0.008680555555555556,31.614583333333336,0)" xlink:href="#aA"/><use transform="matrix(0.008680555555555556,0,0,0.008680555555555556,42.11805555555556,0)" xlink:href="#aB"/></g><path d="M180 0v-1490h901v168H370v510h643v168H370V0H180" id="aJ"/><g id="g"><use transform="matrix(0.008680555555555556,0,0,0.008680555555555556,0,0)" xlink:href="#aC"/><use transform="matrix(0.008680555555555556,0,0,0.008680555555555556,6.484375,0)" xlink:href="#aJ"/><use transform="matrix(0.008680555555555556,0,0,0.008680555555555556,16.979166666666668,0)" xlink:href="#aE"/><use transform="matrix(0.008680555555555556,0,0,0.008680555555555556,28.92361111111111,0)" xlink:href="#aF"/></g><path d="M158 0v-1118h175l1 205c55-151 181-225 313-225 147 0 245 90 285 228 53-141 190-228 352-228 194 0 352 125 352 384V0h-181v-749c0-161-105-225-225-225-151 0-243 103-243 244V0H807v-767c0-124-93-207-219-207-131 0-250 92-250 270V0H158" id="aK"/><path d="M628 24c-324 0-524-230-524-574 0-343 198-582 503-582 237 0 487 146 487 559v75H286c9 234 145 362 343 362 132 0 231-58 273-172l174 48C1024-91 857 24 628 24zM287-650h624c-17-190-120-322-304-322-192 0-309 151-320 322" id="aL"/><g id="h"><use transform="matrix(0.008680555555555556,0,0,0.008680555555555556,0,0)" xlink:href="#aA"/><use transform="matrix(0.008680555555555556,0,0,0.008680555555555556,10.503472222222223,0)" xlink:href="#av"/><use transform="matrix(0.008680555555555556,0,0,0.008680555555555556,21.163194444444446,0)" xlink:href="#aK"/><use transform="matrix(0.008680555555555556,0,0,0.008680555555555556,36.736111111111114,0)" xlink:href="#aL"/></g><path d="M481 0L54-1118h197c107 314 236 620 325 951 87-331 217-637 324-951h197L670 0H481" id="aM"/><path d="M338-670V0H158v-1490h180v566c73-149 190-208 336-208 226 0 379 139 379 422V0H872v-695c0-172-96-275-252-275-161 0-282 109-282 300" id="aN"/><path d="M653-1490V0H466v-1314h-10L96-1047v-204l324-239h233" id="aO"/><path d="M626 20c-262 0-458-168-468-396h184c12 133 134 229 284 229 180 0 311-137 311-326 0-192-136-335-323-335-92 0-196 33-255 78l-178-22 88-738h784v167H429l-51 435h8c61-51 160-87 263-87 273 0 474 211 474 499 0 286-210 496-497 496" id="aP"/><path d="M646 20c-332 0-524-278-524-764 0-483 194-766 524-766s524 283 524 766c0 485-191 764-524 764zm0-166c218 0 341-220 341-598 0-380-123-601-341-601s-341 222-341 601c0 378 123 598 341 598" id="aQ"/><g id="i"><use transform="matrix(0.008680555555555556,0,0,0.008680555555555556,0,0)" xlink:href="#aM"/><use transform="matrix(0.008680555555555556,0,0,0.008680555555555556,9.90451388888889,0)" xlink:href="#as"/><use transform="matrix(0.008680555555555556,0,0,0.008680555555555556,19.88715277777778,0)" xlink:href="#at"/><use transform="matrix(0.008680555555555556,0,0,0.008680555555555556,26.284722222222225,0)" xlink:href="#aG"/><use transform="matrix(0.008680555555555556,0,0,0.008680555555555556,36.44097222222222,0)" xlink:href="#aN"/><use transform="matrix(0.008680555555555556,0,0,0.008680555555555556,46.953125,0)" xlink:href="#as"/><use transform="matrix(0.008680555555555556,0,0,0.008680555555555556,56.935763888888886,0)" xlink:href="#at"/><use transform="matrix(0.008680555555555556,0,0,0.008680555555555556,63.62847222222223,0)" xlink:href="#aC"/><use transform="matrix(0.008680555555555556,0,0,0.008680555555555556,70.11284722222223,0)" xlink:href="#aO"/><use transform="matrix(0.008680555555555556,0,0,0.008680555555555556,77.34375,0)" xlink:href="#aP"/><use transform="matrix(0.008680555555555556,0,0,0.008680555555555556,88.15104166666667,0)" xlink:href="#aQ"/><use transform="matrix(0.008680555555555556,0,0,0.008680555555555556,99.36631944444447,0)" xlink:href="#aF"/></g><path d="M678-1118v154H420V0H240v-964H20v-154h220v-149c0-194 155-293 318-293 85 0 141 18 168 30l-50 154c-19-6-47-17-97-17-111 0-159 58-159 166v109h258" id="aR"/><g id="j"><use transform="matrix(0.008680555555555556,0,0,0.008680555555555556,0,0)" xlink:href="#aG"/><use transform="matrix(0.008680555555555556,0,0,0.008680555555555556,10.15625,0)" xlink:href="#aI"/><use transform="matrix(0.008680555555555556,0,0,0.008680555555555556,21.041666666666668,0)" xlink:href="#aR"/></g><path d="M783 20c-382 0-661-292-661-764 0-473 279-766 661-766 302 0 548 182 601 489h-190c-42-204-217-313-411-313-268 0-476 208-476 590 0 381 209 588 476 588 195 0 369-110 411-313h190c-52 303-296 489-601 489" id="aS"/><g id="k"><use transform="matrix(0.008680555555555556,0,0,0.008680555555555556,0,0)" xlink:href="#aS"/><use transform="matrix(0.008680555555555556,0,0,0.008680555555555556,12.986111111111112,0)" xlink:href="#aN"/><use transform="matrix(0.008680555555555556,0,0,0.008680555555555556,23.498263888888893,0)" xlink:href="#as"/><use transform="matrix(0.008680555555555556,0,0,0.008680555555555556,33.480902777777786,0)" xlink:href="#at"/><use transform="matrix(0.008680555555555556,0,0,0.008680555555555556,40.17361111111112,0)" xlink:href="#aC"/><use transform="matrix(0.008680555555555556,0,0,0.008680555555555556,46.65798611111112,0)" xlink:href="#aO"/><use transform="matrix(0.008680555555555556,0,0,0.008680555555555556,53.8888888888889,0)" xlink:href="#aO"/><use transform="matrix(0.008680555555555556,0,0,0.008680555555555556,61.11979166666668,0)" xlink:href="#aF"/></g><path d="M180 0v-1490h908v168H370v486h669v168H370v500h727V0H180" id="aT"/><path d="M338-1490V0H158v-1490h180" id="aU"/><g id="l"><use transform="matrix(0.008680555555555556,0,0,0.008680555555555556,0,0)" xlink:href="#aT"/><use transform="matrix(0.008680555555555556,0,0,0.008680555555555556,10.68576388888889,0)" xlink:href="#aK"/><use transform="matrix(0.008680555555555556,0,0,0.008680555555555556,26.258680555555557,0)" xlink:href="#as"/><use transform="matrix(0.008680555555555556,0,0,0.008680555555555556,36.24131944444444,0)" xlink:href="#au"/><use transform="matrix(0.008680555555555556,0,0,0.008680555555555556,40.546875,0)" xlink:href="#aU"/></g><g id="m"><use transform="matrix(0.008680555555555556,0,0,0.008680555555555556,0,0)" xlink:href="#ar"/><use transform="matrix(0.008680555555555556,0,0,0.008680555555555556,9.383680555555555,0)" xlink:href="#aL"/><use transform="matrix(0.008680555555555556,0,0,0.008680555555555556,19.74826388888889,0)" xlink:href="#aA"/><use transform="matrix(0.008680555555555556,0,0,0.008680555555555556,30.25173611111111,0)" xlink:href="#aN"/><use transform="matrix(0.008680555555555556,0,0,0.008680555555555556,40.76388888888889,0)" xlink:href="#as"/></g><path d="M154 0v-137l495-537c165-179 249-281 249-418 0-156-121-253-280-253-170 0-278 110-278 278H158c0-264 200-443 465-443 266 0 455 183 455 416 0 161-73 288-336 568L416-179v12h687V0H154" id="aV"/><g id="n"><use transform="matrix(0.008680555555555556,0,0,0.008680555555555556,0,0)" xlink:href="#aM"/><use transform="matrix(0.008680555555555556,0,0,0.008680555555555556,9.90451388888889,0)" xlink:href="#as"/><use transform="matrix(0.008680555555555556,0,0,0.008680555555555556,19.88715277777778,0)" xlink:href="#at"/><use transform="matrix(0.008680555555555556,0,0,0.008680555555555556,26.284722222222225,0)" xlink:href="#aG"/><use transform="matrix(0.008680555555555556,0,0,0.008680555555555556,36.44097222222222,0)" xlink:href="#aN"/><use transform="matrix(0.008680555555555556,0,0,0.008680555555555556,46.953125,0)" xlink:href="#as"/><use transform="matrix(0.008680555555555556,0,0,0.008680555555555556,56.935763888888886,0)" xlink:href="#at"/><use transform="matrix(0.008680555555555556,0,0,0.008680555555555556,63.62847222222223,0)" xlink:href="#aC"/><use transform="matrix(0.008680555555555556,0,0,0.008680555555555556,70.11284722222223,0)" xlink:href="#aV"/><use transform="matrix(0.008680555555555556,0,0,0.008680555555555556,80.95486111111111,0)" xlink:href="#aP"/><use transform="matrix(0.008680555555555556,0,0,0.008680555555555556,91.76215277777779,0)" xlink:href="#aP"/><use transform="matrix(0.008680555555555556,0,0,0.008680555555555556,102.56944444444447,0)" xlink:href="#aF"/></g><g id="o"><use transform="matrix(0.008680555555555556,0,0,0.008680555555555556,0,0)" xlink:href="#aB"/><use transform="matrix(0.008680555555555556,0,0,0.008680555555555556,5.815972222222222,0)" xlink:href="#au"/><use transform="matrix(0.008680555555555556,0,0,0.008680555555555556,10.121527777777779,0)" xlink:href="#aI"/><use transform="matrix(0.008680555555555556,0,0,0.008680555555555556,21.006944444444446,0)" xlink:href="#av"/><use transform="matrix(0.008680555555555556,0,0,0.008680555555555556,31.66666666666667,0)" xlink:href="#aH"/><use transform="matrix(0.008680555555555556,0,0,0.008680555555555556,39.77430555555556,0)" xlink:href="#aq"/><use transform="matrix(0.008680555555555556,0,0,0.008680555555555556,50.286458333333336,0)" xlink:href="#ar"/><use transform="matrix(0.008680555555555556,0,0,0.008680555555555556,59.67013888888889,0)" xlink:href="#aq"/><use transform="matrix(0.008680555555555556,0,0,0.008680555555555556,70.18229166666667,0)" xlink:href="#as"/><use transform="matrix(0.008680555555555556,0,0,0.008680555555555556,80.16493055555556,0)" xlink:href="#at"/><use transform="matrix(0.008680555555555556,0,0,0.008680555555555556,87.13541666666666,0)" xlink:href="#au"/><use transform="matrix(0.008680555555555556,0,0,0.008680555555555556,91.44097222222221,0)" xlink:href="#av"/></g><g id="p"><use transform="matrix(0.008680555555555556,0,0,0.008680555555555556,0,0)" xlink:href="#aG"/><use transform="matrix(0.008680555555555556,0,0,0.008680555555555556,10.15625,0)" xlink:href="#aN"/><use transform="matrix(0.008680555555555556,0,0,0.008680555555555556,20.66840277777778,0)" xlink:href="#as"/><use transform="matrix(0.008680555555555556,0,0,0.008680555555555556,30.651041666666668,0)" xlink:href="#at"/><use transform="matrix(0.008680555555555556,0,0,0.008680555555555556,37.34375,0)" xlink:href="#aC"/><use transform="matrix(0.008680555555555556,0,0,0.008680555555555556,43.828125,0)" xlink:href="#aO"/><use transform="matrix(0.008680555555555556,0,0,0.008680555555555556,51.05902777777778,0)" xlink:href="#aF"/></g><g id="q"><use transform="matrix(0.008680555555555556,0,0,0.008680555555555556,0,0)" xlink:href="#aw"/><use transform="matrix(0.008680555555555556,0,0,0.008680555555555556,11.145833333333334,0)" xlink:href="#aB"/><use transform="matrix(0.008680555555555556,0,0,0.008680555555555556,16.961805555555557,0)" xlink:href="#aH"/><use transform="matrix(0.008680555555555556,0,0,0.008680555555555556,25.069444444444446,0)" xlink:href="#aG"/><use transform="matrix(0.008680555555555556,0,0,0.008680555555555556,35.22569444444444,0)" xlink:href="#at"/><use transform="matrix(0.008680555555555556,0,0,0.008680555555555556,42.19618055555556,0)" xlink:href="#au"/><use transform="matrix(0.008680555555555556,0,0,0.008680555555555556,46.501736111111114,0)" xlink:href="#as"/><use transform="matrix(0.008680555555555556,0,0,0.008680555555555556,56.484375,0)" xlink:href="#aG"/><use transform="matrix(0.008680555555555556,0,0,0.008680555555555556,66.81423611111111,0)" xlink:href="#as"/><use transform="matrix(0.008680555555555556,0,0,0.008680555555555556,76.796875,0)" xlink:href="#av"/></g><path d="M98-1322v-168h1126v168H757V0H567v-1322H98" id="aW"/><path d="M180 0v-1490h270l367 940c28 72 75 218 110 339 35-117 81-264 110-339l362-940h271V0h-187c2-448-5-837 7-1287-157 497-311 829-483 1287H842C666-458 514-784 354-1284c12 438 5 843 7 1284H180" id="aX"/><path d="M657 26c-323 0-524-166-541-416h195c15 169 171 246 346 246 202 0 356-106 356-265 5-203-294-238-475-293-239-73-380-191-380-389 0-252 224-419 512-419 294 0 499 171 508 396H992c-17-145-151-228-328-228-193 0-321 102-321 242 0 156 175 211 284 241l149 41c160 44 422 134 422 412 0 244-197 432-541 432" id="aY"/><path d="M52 0l541-1490h220L1361 0h-200l-149-416H398L254 0H52zm404-582h497c-103-290-145-390-251-756-108 377-145 460-246 756" id="aZ"/><g id="r"><use transform="matrix(0.008680555555555556,0,0,0.008680555555555556,0,0)" xlink:href="#aW"/><use transform="matrix(0.008680555555555556,0,0,0.008680555555555556,11.475694444444445,0)" xlink:href="#az"/><use transform="matrix(0.008680555555555556,0,0,0.008680555555555556,16.25,0)" xlink:href="#aX"/><use transform="matrix(0.008680555555555556,0,0,0.008680555555555556,32.30902777777778,0)" xlink:href="#aT"/><use transform="matrix(0.008680555555555556,0,0,0.008680555555555556,42.99479166666667,0)" xlink:href="#aY"/><use transform="matrix(0.008680555555555556,0,0,0.008680555555555556,54.40104166666667,0)" xlink:href="#aW"/><use transform="matrix(0.008680555555555556,0,0,0.008680555555555556,64.36631944444446,0)" xlink:href="#aZ"/><use transform="matrix(0.008680555555555556,0,0,0.008680555555555556,76.63194444444446,0)" xlink:href="#aX"/><use transform="matrix(0.008680555555555556,0,0,0.008680555555555556,92.69097222222223,0)" xlink:href="#aD"/></g><g id="s"><use transform="matrix(0.008680555555555556,0,0,0.008680555555555556,0,0)" xlink:href="#as"/><use transform="matrix(0.008680555555555556,0,0,0.008680555555555556,9.98263888888889,0)" xlink:href="#aB"/><use transform="matrix(0.008680555555555556,0,0,0.008680555555555556,15.79861111111111,0)" xlink:href="#au"/><use transform="matrix(0.008680555555555556,0,0,0.008680555555555556,20.104166666666664,0)" xlink:href="#aM"/><use transform="matrix(0.008680555555555556,0,0,0.008680555555555556,29.748263888888886,0)" xlink:href="#av"/></g><path d="M677 24c-213 0-288-135-325-197h-20V0H158v-1490h180v551h14c37-59 106-193 324-193 279 0 474 222 474 576 0 356-194 580-473 580zm-27-161c209 0 317-186 317-421 0-232-105-413-317-413-206 0-314 166-314 413 0 249 111 421 314 421" id="ba"/><g id="t"><use transform="matrix(0.008680555555555556,0,0,0.008680555555555556,0,0)" xlink:href="#ba"/><use transform="matrix(0.008680555555555556,0,0,0.008680555555555556,10.885416666666668,0)" xlink:href="#av"/><use transform="matrix(0.008680555555555556,0,0,0.008680555555555556,21.545138888888893,0)" xlink:href="#av"/><use transform="matrix(0.008680555555555556,0,0,0.008680555555555556,32.204861111111114,0)" xlink:href="#aU"/><use transform="matrix(0.008680555555555556,0,0,0.008680555555555556,36.51041666666667,0)" xlink:href="#aL"/><use transform="matrix(0.008680555555555556,0,0,0.008680555555555556,47.04861111111112,0)" xlink:href="#as"/><use transform="matrix(0.008680555555555556,0,0,0.008680555555555556,57.03125000000001,0)" xlink:href="#aA"/></g><g id="u"><use transform="matrix(0.008680555555555556,0,0,0.008680555555555556,0,0)" xlink:href="#aG"/><use transform="matrix(0.008680555555555556,0,0,0.008680555555555556,10.32986111111111,0)" xlink:href="#as"/><use transform="matrix(0.008680555555555556,0,0,0.008680555555555556,20.3125,0)" xlink:href="#aB"/><use transform="matrix(0.008680555555555556,0,0,0.008680555555555556,25.95486111111111,0)" xlink:href="#aL"/><use transform="matrix(0.008680555555555556,0,0,0.008680555555555556,36.31944444444444,0)" xlink:href="#ay"/><use transform="matrix(0.008680555555555556,0,0,0.008680555555555556,47.22222222222222,0)" xlink:href="#av"/><use transform="matrix(0.008680555555555556,0,0,0.008680555555555556,57.881944444444436,0)" xlink:href="#at"/><use transform="matrix(0.008680555555555556,0,0,0.008680555555555556,64.85243055555556,0)" xlink:href="#au"/><use transform="matrix(0.008680555555555556,0,0,0.008680555555555556,69.15798611111111,0)" xlink:href="#as"/><use transform="matrix(0.008680555555555556,0,0,0.008680555555555556,79.140625,0)" xlink:href="#ar"/></g><g id="v"><use transform="matrix(0.008680555555555556,0,0,0.008680555555555556,0,0)" xlink:href="#aG"/><use transform="matrix(0.008680555555555556,0,0,0.008680555555555556,10.32986111111111,0)" xlink:href="#as"/><use transform="matrix(0.008680555555555556,0,0,0.008680555555555556,20.3125,0)" xlink:href="#aB"/><use transform="matrix(0.008680555555555556,0,0,0.008680555555555556,25.95486111111111,0)" xlink:href="#aL"/><use transform="matrix(0.008680555555555556,0,0,0.008680555555555556,36.31944444444444,0)" xlink:href="#ay"/><use transform="matrix(0.008680555555555556,0,0,0.008680555555555556,47.22222222222222,0)" xlink:href="#av"/><use transform="matrix(0.008680555555555556,0,0,0.008680555555555556,57.881944444444436,0)" xlink:href="#at"/><use transform="matrix(0.008680555555555556,0,0,0.008680555555555556,64.85243055555556,0)" xlink:href="#au"/><use transform="matrix(0.008680555555555556,0,0,0.008680555555555556,69.15798611111111,0)" xlink:href="#as"/></g><g id="w"><use transform="matrix(0.008680555555555556,0,0,0.008680555555555556,0,0)" xlink:href="#aw"/><use transform="matrix(0.008680555555555556,0,0,0.008680555555555556,10.885416666666668,0)" xlink:href="#aL"/><use transform="matrix(0.008680555555555556,0,0,0.008680555555555556,21.25,0)" xlink:href="#ar"/><use transform="matrix(0.008680555555555556,0,0,0.008680555555555556,30.633680555555557,0)" xlink:href="#aG"/><use transform="matrix(0.008680555555555556,0,0,0.008680555555555556,40.78993055555556,0)" xlink:href="#at"/><use transform="matrix(0.008680555555555556,0,0,0.008680555555555556,47.76041666666667,0)" xlink:href="#au"/><use transform="matrix(0.008680555555555556,0,0,0.008680555555555556,52.065972222222236,0)" xlink:href="#aG"/><use transform="matrix(0.008680555555555556,0,0,0.008680555555555556,62.39583333333334,0)" xlink:href="#as"/><use transform="matrix(0.008680555555555556,0,0,0.008680555555555556,72.37847222222223,0)" xlink:href="#av"/></g><path d="M57 0l534-763-501-727h220c122 187 296 416 391 605 94-191 272-419 396-605h215L811-770 1340 0h-219C986-204 811-426 699-640 588-430 407-202 273 0H57" id="bb"/><g id="x"><use transform="matrix(0.008680555555555556,0,0,0.008680555555555556,0,0)" xlink:href="#aW"/><use transform="matrix(0.008680555555555556,0,0,0.008680555555555556,11.475694444444445,0)" xlink:href="#aT"/><use transform="matrix(0.008680555555555556,0,0,0.008680555555555556,22.161458333333336,0)" xlink:href="#bb"/><use transform="matrix(0.008680555555555556,0,0,0.008680555555555556,33.58506944444445,0)" xlink:href="#aW"/></g><g id="y"><use transform="matrix(0.008680555555555556,0,0,0.008680555555555556,0,0)" xlink:href="#aw"/><use transform="matrix(0.008680555555555556,0,0,0.008680555555555556,10.885416666666668,0)" xlink:href="#as"/><use transform="matrix(0.008680555555555556,0,0,0.008680555555555556,20.868055555555557,0)" xlink:href="#aB"/><use transform="matrix(0.008680555555555556,0,0,0.008680555555555556,26.770833333333336,0)" xlink:href="#as"/><use transform="matrix(0.008680555555555556,0,0,0.008680555555555556,36.75347222222223,0)" xlink:href="#aH"/><use transform="matrix(0.008680555555555556,0,0,0.008680555555555556,44.861111111111114,0)" xlink:href="#aG"/><use transform="matrix(0.008680555555555556,0,0,0.008680555555555556,55.017361111111114,0)" xlink:href="#at"/><use transform="matrix(0.008680555555555556,0,0,0.008680555555555556,61.98784722222222,0)" xlink:href="#au"/><use transform="matrix(0.008680555555555556,0,0,0.008680555555555556,66.29340277777779,0)" xlink:href="#as"/><use transform="matrix(0.008680555555555556,0,0,0.008680555555555556,76.27604166666667,0)" xlink:href="#aG"/><use transform="matrix(0.008680555555555556,0,0,0.008680555555555556,86.60590277777779,0)" xlink:href="#as"/><use transform="matrix(0.008680555555555556,0,0,0.008680555555555556,96.58854166666667,0)" xlink:href="#av"/></g><path d="M784 20c-382 0-662-292-662-764 0-473 280-766 662-766s660 293 660 766c0 472-278 764-660 764zm0-176c266 0 475-207 475-588 0-383-209-590-475-590-268 0-477 208-477 590 0 380 209 588 477 588" id="bc"/><path d="M180 0v-1490h190v1322h690V0H180" id="bd"/><path d="M180 0v-1490h224l606 953c40 63 108 177 176 312-27-437-7-821-13-1265h190V0h-226C860-448 622-778 356-1262c27 476 11 792 15 1262H180" id="be"/><g id="z"><use transform="matrix(0.008680555555555556,0,0,0.008680555555555556,0,0)" xlink:href="#ax"/><use transform="matrix(0.008680555555555556,0,0,0.008680555555555556,11.631944444444445,0)" xlink:href="#bc"/><use transform="matrix(0.008680555555555556,0,0,0.008680555555555556,25.225694444444443,0)" xlink:href="#bc"/><use transform="matrix(0.008680555555555556,0,0,0.008680555555555556,38.81944444444444,0)" xlink:href="#bd"/><use transform="matrix(0.008680555555555556,0,0,0.008680555555555556,48.87152777777778,0)" xlink:href="#aT"/><use transform="matrix(0.008680555555555556,0,0,0.008680555555555556,59.55729166666667,0)" xlink:href="#aZ"/><use transform="matrix(0.008680555555555556,0,0,0.008680555555555556,71.82291666666667,0)" xlink:href="#be"/></g><g id="A"><use transform="matrix(0.008680555555555556,0,0,0.008680555555555556,0,0)" xlink:href="#aL"/><use transform="matrix(0.008680555555555556,0,0,0.008680555555555556,10.364583333333334,0)" xlink:href="#aA"/><use transform="matrix(0.008680555555555556,0,0,0.008680555555555556,20.868055555555557,0)" xlink:href="#aw"/><use transform="matrix(0.008680555555555556,0,0,0.008680555555555556,31.753472222222225,0)" xlink:href="#aL"/><use transform="matrix(0.008680555555555556,0,0,0.008680555555555556,42.11805555555556,0)" xlink:href="#at"/><use transform="matrix(0.008680555555555556,0,0,0.008680555555555556,48.51562500000001,0)" xlink:href="#aL"/><use transform="matrix(0.008680555555555556,0,0,0.008680555555555556,58.88020833333334,0)" xlink:href="#aG"/><use transform="matrix(0.008680555555555556,0,0,0.008680555555555556,69.03645833333334,0)" xlink:href="#av"/><use transform="matrix(0.008680555555555556,0,0,0.008680555555555556,79.69618055555557,0)" xlink:href="#ar"/></g><g id="B"><use transform="matrix(0.008680555555555556,0,0,0.008680555555555556,0,0)" xlink:href="#aG"/><use transform="matrix(0.008680555555555556,0,0,0.008680555555555556,10.15625,0)" xlink:href="#aL"/><use transform="matrix(0.008680555555555556,0,0,0.008680555555555556,20.520833333333336,0)" xlink:href="#aI"/></g><g id="C"><use transform="matrix(0.008680555555555556,0,0,0.008680555555555556,0,0)" xlink:href="#aM"/><use transform="matrix(0.008680555555555556,0,0,0.008680555555555556,9.90451388888889,0)" xlink:href="#as"/><use transform="matrix(0.008680555555555556,0,0,0.008680555555555556,19.88715277777778,0)" xlink:href="#at"/><use transform="matrix(0.008680555555555556,0,0,0.008680555555555556,26.284722222222225,0)" xlink:href="#aG"/><use transform="matrix(0.008680555555555556,0,0,0.008680555555555556,36.44097222222222,0)" xlink:href="#aN"/><use transform="matrix(0.008680555555555556,0,0,0.008680555555555556,46.953125,0)" xlink:href="#as"/><use transform="matrix(0.008680555555555556,0,0,0.008680555555555556,56.935763888888886,0)" xlink:href="#at"/><use transform="matrix(0.008680555555555556,0,0,0.008680555555555556,63.62847222222223,0)" xlink:href="#aC"/><use transform="matrix(0.008680555555555556,0,0,0.008680555555555556,70.11284722222223,0)" xlink:href="#aO"/><use transform="matrix(0.008680555555555556,0,0,0.008680555555555556,77.34375,0)" xlink:href="#aQ"/><use transform="matrix(0.008680555555555556,0,0,0.008680555555555556,88.55902777777777,0)" xlink:href="#aF"/></g><g id="D"><use transform="matrix(0.008680555555555556,0,0,0.008680555555555556,0,0)" xlink:href="#aU"/><use transform="matrix(0.008680555555555556,0,0,0.008680555555555556,4.305555555555555,0)" xlink:href="#av"/><use transform="matrix(0.008680555555555556,0,0,0.008680555555555556,14.965277777777779,0)" xlink:href="#ay"/><use transform="matrix(0.008680555555555556,0,0,0.008680555555555556,25.868055555555557,0)" xlink:href="#at"/><use transform="matrix(0.008680555555555556,0,0,0.008680555555555556,32.56076388888889,0)" xlink:href="#as"/><use transform="matrix(0.008680555555555556,0,0,0.008680555555555556,42.543402777777786,0)" xlink:href="#aw"/><use transform="matrix(0.008680555555555556,0,0,0.008680555555555556,53.42881944444446,0)" xlink:href="#av"/><use transform="matrix(0.008680555555555556,0,0,0.008680555555555556,64.08854166666669,0)" xlink:href="#aq"/><use transform="matrix(0.008680555555555556,0,0,0.008680555555555556,74.60069444444446,0)" xlink:href="#at"/><use transform="matrix(0.008680555555555556,0,0,0.008680555555555556,80.99826388888889,0)" xlink:href="#av"/></g><g id="E"><use transform="matrix(0.008680555555555556,0,0,0.008680555555555556,0,0)" xlink:href="#aA"/><use transform="matrix(0.008680555555555556,0,0,0.008680555555555556,10.503472222222223,0)" xlink:href="#aq"/><use transform="matrix(0.008680555555555556,0,0,0.008680555555555556,21.015625,0)" xlink:href="#aK"/><use transform="matrix(0.008680555555555556,0,0,0.008680555555555556,36.58854166666667,0)" xlink:href="#aL"/><use transform="matrix(0.008680555555555556,0,0,0.008680555555555556,46.95312500000001,0)" xlink:href="#at"/><use transform="matrix(0.008680555555555556,0,0,0.008680555555555556,53.35069444444446,0)" xlink:href="#av"/></g><g id="F"><use transform="matrix(0.008680555555555556,0,0,0.008680555555555556,0,0)" xlink:href="#aG"/><use transform="matrix(0.008680555555555556,0,0,0.008680555555555556,10.15625,0)" xlink:href="#av"/><use transform="matrix(0.008680555555555556,0,0,0.008680555555555556,20.81597222222222,0)" xlink:href="#aK"/><use transform="matrix(0.008680555555555556,0,0,0.008680555555555556,36.388888888888886,0)" xlink:href="#aI"/><use transform="matrix(0.008680555555555556,0,0,0.008680555555555556,47.27430555555556,0)" xlink:href="#aU"/><use transform="matrix(0.008680555555555556,0,0,0.008680555555555556,51.579861111111114,0)" xlink:href="#aL"/><use transform="matrix(0.008680555555555556,0,0,0.008680555555555556,61.94444444444445,0)" xlink:href="#aK"/><use transform="matrix(0.008680555555555556,0,0,0.008680555555555556,77.51736111111111,0)" xlink:href="#aL"/><use transform="matrix(0.008680555555555556,0,0,0.008680555555555556,87.88194444444444,0)" xlink:href="#aA"/><use transform="matrix(0.008680555555555556,0,0,0.008680555555555556,98.38541666666667,0)" xlink:href="#aB"/><use transform="matrix(0.008680555555555556,0,0,0.008680555555555556,104.02777777777779,0)" xlink:href="#av"/></g><g id="G"><use transform="matrix(0.008680555555555556,0,0,0.008680555555555556,0,0)" xlink:href="#aM"/><use transform="matrix(0.008680555555555556,0,0,0.008680555555555556,9.90451388888889,0)" xlink:href="#as"/><use transform="matrix(0.008680555555555556,0,0,0.008680555555555556,19.88715277777778,0)" xlink:href="#at"/><use transform="matrix(0.008680555555555556,0,0,0.008680555555555556,26.284722222222225,0)" xlink:href="#aG"/><use transform="matrix(0.008680555555555556,0,0,0.008680555555555556,36.44097222222222,0)" xlink:href="#aN"/><use transform="matrix(0.008680555555555556,0,0,0.008680555555555556,46.953125,0)" xlink:href="#as"/><use transform="matrix(0.008680555555555556,0,0,0.008680555555555556,56.935763888888886,0)" xlink:href="#at"/><use transform="matrix(0.008680555555555556,0,0,0.008680555555555556,63.62847222222223,0)" xlink:href="#aC"/><use transform="matrix(0.008680555555555556,0,0,0.008680555555555556,70.11284722222223,0)" xlink:href="#aO"/><use transform="matrix(0.008680555555555556,0,0,0.008680555555555556,77.34375,0)" xlink:href="#aQ"/><use transform="matrix(0.008680555555555556,0,0,0.008680555555555556,88.55902777777777,0)" xlink:href="#aQ"/><use transform="matrix(0.008680555555555556,0,0,0.008680555555555556,99.77430555555554,0)" xlink:href="#aF"/></g><g id="H"><use transform="matrix(0.008680555555555556,0,0,0.008680555555555556,0,0)" xlink:href="#ba"/><use transform="matrix(0.008680555555555556,0,0,0.008680555555555556,11.059027777777779,0)" xlink:href="#as"/><use transform="matrix(0.008680555555555556,0,0,0.008680555555555556,21.041666666666668,0)" xlink:href="#au"/><use transform="matrix(0.008680555555555556,0,0,0.008680555555555556,25.347222222222225,0)" xlink:href="#at"/><use transform="matrix(0.008680555555555556,0,0,0.008680555555555556,32.317708333333336,0)" xlink:href="#at"/><use transform="matrix(0.008680555555555556,0,0,0.008680555555555556,38.715277777777786,0)" xlink:href="#av"/></g><g id="I"><use transform="matrix(0.008680555555555556,0,0,0.008680555555555556,0,0)" xlink:href="#aG"/><use transform="matrix(0.008680555555555556,0,0,0.008680555555555556,10.15625,0)" xlink:href="#au"/><use transform="matrix(0.008680555555555556,0,0,0.008680555555555556,14.461805555555555,0)" xlink:href="#aw"/><use transform="matrix(0.008680555555555556,0,0,0.008680555555555556,25.347222222222225,0)" xlink:href="#as"/><use transform="matrix(0.008680555555555556,0,0,0.008680555555555556,35.329861111111114,0)" xlink:href="#aw"/><use transform="matrix(0.008680555555555556,0,0,0.008680555555555556,46.215277777777786,0)" xlink:href="#aL"/></g><g id="J"><use transform="matrix(0.008680555555555556,0,0,0.008680555555555556,0,0)" xlink:href="#aL"/><use transform="matrix(0.008680555555555556,0,0,0.008680555555555556,10.364583333333334,0)" xlink:href="#ar"/><use transform="matrix(0.008680555555555556,0,0,0.008680555555555556,19.74826388888889,0)" xlink:href="#aB"/><use transform="matrix(0.008680555555555556,0,0,0.008680555555555556,25.651041666666668,0)" xlink:href="#as"/><use transform="matrix(0.008680555555555556,0,0,0.008680555555555556,35.63368055555556,0)" xlink:href="#aw"/><use transform="matrix(0.008680555555555556,0,0,0.008680555555555556,46.519097222222236,0)" xlink:href="#av"/></g><g id="K"><use transform="matrix(0.008680555555555556,0,0,0.008680555555555556,0,0)" xlink:href="#aM"/><use transform="matrix(0.008680555555555556,0,0,0.008680555555555556,9.90451388888889,0)" xlink:href="#as"/><use transform="matrix(0.008680555555555556,0,0,0.008680555555555556,19.88715277777778,0)" xlink:href="#at"/><use transform="matrix(0.008680555555555556,0,0,0.008680555555555556,26.284722222222225,0)" xlink:href="#aG"/><use transform="matrix(0.008680555555555556,0,0,0.008680555555555556,36.44097222222222,0)" xlink:href="#aN"/><use transform="matrix(0.008680555555555556,0,0,0.008680555555555556,46.953125,0)" xlink:href="#as"/><use transform="matrix(0.008680555555555556,0,0,0.008680555555555556,56.935763888888886,0)" xlink:href="#at"/><use transform="matrix(0.008680555555555556,0,0,0.008680555555555556,63.62847222222223,0)" xlink:href="#aC"/><use transform="matrix(0.008680555555555556,0,0,0.008680555555555556,70.11284722222223,0)" xlink:href="#aV"/><use transform="matrix(0.008680555555555556,0,0,0.008680555555555556,80.95486111111111,0)" xlink:href="#aF"/></g><g id="L"><use transform="matrix(0.008680555555555556,0,0,0.008680555555555556,0,0)" xlink:href="#ar"/><use transform="matrix(0.008680555555555556,0,0,0.008680555555555556,9.383680555555555,0)" xlink:href="#av"/><use transform="matrix(0.008680555555555556,0,0,0.008680555555555556,20.04340277777778,0)" xlink:href="#aU"/><use transform="matrix(0.008680555555555556,0,0,0.008680555555555556,24.348958333333336,0)" xlink:href="#au"/><use transform="matrix(0.008680555555555556,0,0,0.008680555555555556,28.654513888888893,0)" xlink:href="#aG"/><use transform="matrix(0.008680555555555556,0,0,0.008680555555555556,38.81076388888889,0)" xlink:href="#au"/><use transform="matrix(0.008680555555555556,0,0,0.008680555555555556,43.11631944444444,0)" xlink:href="#aB"/><use transform="matrix(0.008680555555555556,0,0,0.008680555555555556,49.019097222222236,0)" xlink:href="#as"/><use transform="matrix(0.008680555555555556,0,0,0.008680555555555556,59.001736111111114,0)" xlink:href="#aG"/><use transform="matrix(0.008680555555555556,0,0,0.008680555555555556,69.15798611111111,0)" xlink:href="#av"/><use transform="matrix(0.008680555555555556,0,0,0.008680555555555556,79.81770833333334,0)" xlink:href="#aL"/><use transform="matrix(0.008680555555555556,0,0,0.008680555555555556,90.18229166666667,0)" xlink:href="#ar"/></g><g id="M"><use transform="matrix(0.008680555555555556,0,0,0.008680555555555556,0,0)" xlink:href="#au"/><use transform="matrix(0.008680555555555556,0,0,0.008680555555555556,4.305555555555555,0)" xlink:href="#aw"/><use transform="matrix(0.008680555555555556,0,0,0.008680555555555556,15.190972222222223,0)" xlink:href="#aH"/><use transform="matrix(0.008680555555555556,0,0,0.008680555555555556,23.298611111111118,0)" xlink:href="#aG"/><use transform="matrix(0.008680555555555556,0,0,0.008680555555555556,33.62847222222223,0)" xlink:href="#as"/><use transform="matrix(0.008680555555555556,0,0,0.008680555555555556,43.611111111111114,0)" xlink:href="#aB"/><use transform="matrix(0.008680555555555556,0,0,0.008680555555555556,49.25347222222222,0)" xlink:href="#aL"/><use transform="matrix(0.008680555555555556,0,0,0.008680555555555556,59.61805555555556,0)" xlink:href="#ay"/><use transform="matrix(0.008680555555555556,0,0,0.008680555555555556,70.52083333333334,0)" xlink:href="#av"/><use transform="matrix(0.008680555555555556,0,0,0.008680555555555556,81.18055555555557,0)" xlink:href="#at"/><use transform="matrix(0.008680555555555556,0,0,0.008680555555555556,88.15104166666667,0)" xlink:href="#au"/><use transform="matrix(0.008680555555555556,0,0,0.008680555555555556,92.45659722222223,0)" xlink:href="#as"/></g><g id="N"><use transform="matrix(0.008680555555555556,0,0,0.008680555555555556,0,0)" xlink:href="#au"/><use transform="matrix(0.008680555555555556,0,0,0.008680555555555556,4.305555555555555,0)" xlink:href="#aw"/><use transform="matrix(0.008680555555555556,0,0,0.008680555555555556,15.190972222222223,0)" xlink:href="#aH"/><use transform="matrix(0.008680555555555556,0,0,0.008680555555555556,23.298611111111118,0)" xlink:href="#ar"/><use transform="matrix(0.008680555555555556,0,0,0.008680555555555556,32.68229166666667,0)" xlink:href="#av"/><use transform="matrix(0.008680555555555556,0,0,0.008680555555555556,43.34201388888889,0)" xlink:href="#aU"/><use transform="matrix(0.008680555555555556,0,0,0.008680555555555556,47.64756944444445,0)" xlink:href="#au"/><use transform="matrix(0.008680555555555556,0,0,0.008680555555555556,51.95312500000001,0)" xlink:href="#aG"/><use transform="matrix(0.008680555555555556,0,0,0.008680555555555556,62.10937500000001,0)" xlink:href="#au"/><use transform="matrix(0.008680555555555556,0,0,0.008680555555555556,66.41493055555556,0)" xlink:href="#aB"/><use transform="matrix(0.008680555555555556,0,0,0.008680555555555556,72.31770833333334,0)" xlink:href="#as"/><use transform="matrix(0.008680555555555556,0,0,0.008680555555555556,82.30034722222223,0)" xlink:href="#aA"/><use transform="matrix(0.008680555555555556,0,0,0.008680555555555556,92.80381944444447,0)" xlink:href="#aB"/><use transform="matrix(0.008680555555555556,0,0,0.008680555555555556,98.44618055555557,0)" xlink:href="#aL"/></g><g id="O"><use transform="matrix(0.008680555555555556,0,0,0.008680555555555556,0,0)" xlink:href="#au"/><use transform="matrix(0.008680555555555556,0,0,0.008680555555555556,4.305555555555555,0)" xlink:href="#aw"/><use transform="matrix(0.008680555555555556,0,0,0.008680555555555556,15.190972222222223,0)" xlink:href="#aH"/><use transform="matrix(0.008680555555555556,0,0,0.008680555555555556,23.298611111111118,0)" xlink:href="#as"/><use transform="matrix(0.008680555555555556,0,0,0.008680555555555556,33.28125,0)" xlink:href="#aB"/><use transform="matrix(0.008680555555555556,0,0,0.008680555555555556,38.92361111111111,0)" xlink:href="#aL"/><use transform="matrix(0.008680555555555556,0,0,0.008680555555555556,49.28819444444445,0)" xlink:href="#aA"/><use transform="matrix(0.008680555555555556,0,0,0.008680555555555556,59.791666666666664,0)" xlink:href="#aw"/><use transform="matrix(0.008680555555555556,0,0,0.008680555555555556,70.67708333333333,0)" xlink:href="#aL"/><use transform="matrix(0.008680555555555556,0,0,0.008680555555555556,81.04166666666666,0)" xlink:href="#aA"/><use transform="matrix(0.008680555555555556,0,0,0.008680555555555556,91.5451388888889,0)" xlink:href="#aB"/><use transform="matrix(0.008680555555555556,0,0,0.008680555555555556,97.1875,0)" xlink:href="#aL"/></g><g id="P"><use transform="matrix(0.008680555555555556,0,0,0.008680555555555556,0,0)" xlink:href="#au"/><use transform="matrix(0.008680555555555556,0,0,0.008680555555555556,4.305555555555555,0)" xlink:href="#aw"/><use transform="matrix(0.008680555555555556,0,0,0.008680555555555556,15.190972222222223,0)" xlink:href="#aH"/><use transform="matrix(0.008680555555555556,0,0,0.008680555555555556,23.298611111111118,0)" xlink:href="#aL"/><use transform="matrix(0.008680555555555556,0,0,0.008680555555555556,33.66319444444445,0)" xlink:href="#aA"/><use transform="matrix(0.008680555555555556,0,0,0.008680555555555556,44.16666666666667,0)" xlink:href="#aw"/><use transform="matrix(0.008680555555555556,0,0,0.008680555555555556,55.05208333333334,0)" xlink:href="#aL"/><use transform="matrix(0.008680555555555556,0,0,0.008680555555555556,65.41666666666667,0)" xlink:href="#at"/><use transform="matrix(0.008680555555555556,0,0,0.008680555555555556,71.81423611111111,0)" xlink:href="#aL"/><use transform="matrix(0.008680555555555556,0,0,0.008680555555555556,82.17881944444444,0)" xlink:href="#aG"/><use transform="matrix(0.008680555555555556,0,0,0.008680555555555556,92.33506944444444,0)" xlink:href="#av"/></g><g id="Q"><use transform="matrix(0.008680555555555556,0,0,0.008680555555555556,0,0)" xlink:href="#ar"/><use transform="matrix(0.008680555555555556,0,0,0.008680555555555556,9.383680555555555,0)" xlink:href="#aB"/><use transform="matrix(0.008680555555555556,0,0,0.008680555555555556,15.286458333333332,0)" xlink:href="#as"/><use transform="matrix(0.008680555555555556,0,0,0.008680555555555556,25.269097222222225,0)" xlink:href="#aB"/><use transform="matrix(0.008680555555555556,0,0,0.008680555555555556,31.085069444444443,0)" xlink:href="#aq"/><use transform="matrix(0.008680555555555556,0,0,0.008680555555555556,41.59722222222222,0)" xlink:href="#ar"/></g><g id="R"><use transform="matrix(0.008680555555555556,0,0,0.008680555555555556,0,0)" xlink:href="#aI"/><use transform="matrix(0.008680555555555556,0,0,0.008680555555555556,10.885416666666668,0)" xlink:href="#at"/><use transform="matrix(0.008680555555555556,0,0,0.008680555555555556,17.85590277777778,0)" xlink:href="#au"/><use transform="matrix(0.008680555555555556,0,0,0.008680555555555556,22.161458333333336,0)" xlink:href="#av"/><use transform="matrix(0.008680555555555556,0,0,0.008680555555555556,32.82118055555556,0)" xlink:href="#at"/><use transform="matrix(0.008680555555555556,0,0,0.008680555555555556,39.79166666666667,0)" xlink:href="#au"/><use transform="matrix(0.008680555555555556,0,0,0.008680555555555556,44.09722222222223,0)" xlink:href="#aw"/><use transform="matrix(0.008680555555555556,0,0,0.008680555555555556,54.9826388888889,0)" xlink:href="#as"/><use transform="matrix(0.008680555555555556,0,0,0.008680555555555556,64.96527777777779,0)" xlink:href="#aw"/><use transform="matrix(0.008680555555555556,0,0,0.008680555555555556,75.85069444444446,0)" xlink:href="#aL"/></g><g id="S"><use transform="matrix(0.008680555555555556,0,0,0.008680555555555556,0,0)" xlink:href="#as"/><use transform="matrix(0.008680555555555556,0,0,0.008680555555555556,9.98263888888889,0)" xlink:href="#aA"/><use transform="matrix(0.008680555555555556,0,0,0.008680555555555556,20.486111111111114,0)" xlink:href="#av"/><use transform="matrix(0.008680555555555556,0,0,0.008680555555555556,31.145833333333336,0)" xlink:href="#aA"/><use transform="matrix(0.008680555555555556,0,0,0.008680555555555556,41.64930555555556,0)" xlink:href="#au"/><use transform="matrix(0.008680555555555556,0,0,0.008680555555555556,45.954861111111114,0)" xlink:href="#aK"/><use transform="matrix(0.008680555555555556,0,0,0.008680555555555556,61.527777777777786,0)" xlink:href="#av"/></g><g id="T"><use transform="matrix(0.008680555555555556,0,0,0.008680555555555556,0,0)" xlink:href="#aB"/><use transform="matrix(0.008680555555555556,0,0,0.008680555555555556,5.815972222222222,0)" xlink:href="#au"/><use transform="matrix(0.008680555555555556,0,0,0.008680555555555556,10.121527777777779,0)" xlink:href="#aB"/><use transform="matrix(0.008680555555555556,0,0,0.008680555555555556,15.9375,0)" xlink:href="#aq"/><use transform="matrix(0.008680555555555556,0,0,0.008680555555555556,26.44965277777778,0)" xlink:href="#aU"/><use transform="matrix(0.008680555555555556,0,0,0.008680555555555556,30.755208333333336,0)" xlink:href="#av"/></g><g id="U"><use transform="matrix(0.008680555555555556,0,0,0.008680555555555556,0,0)" xlink:href="#aw"/><use transform="matrix(0.008680555555555556,0,0,0.008680555555555556,11.145833333333334,0)" xlink:href="#aB"/><use transform="matrix(0.008680555555555556,0,0,0.008680555555555556,16.961805555555557,0)" xlink:href="#aH"/><use transform="matrix(0.008680555555555556,0,0,0.008680555555555556,25.069444444444446,0)" xlink:href="#ar"/><use transform="matrix(0.008680555555555556,0,0,0.008680555555555556,34.453125,0)" xlink:href="#av"/><use transform="matrix(0.008680555555555556,0,0,0.008680555555555556,45.11284722222222,0)" xlink:href="#aU"/><use transform="matrix(0.008680555555555556,0,0,0.008680555555555556,49.41840277777778,0)" xlink:href="#au"/><use transform="matrix(0.008680555555555556,0,0,0.008680555555555556,53.723958333333336,0)" xlink:href="#aG"/><use transform="matrix(0.008680555555555556,0,0,0.008680555555555556,63.880208333333336,0)" xlink:href="#au"/><use transform="matrix(0.008680555555555556,0,0,0.008680555555555556,68.18576388888889,0)" xlink:href="#aB"/><use transform="matrix(0.008680555555555556,0,0,0.008680555555555556,74.08854166666667,0)" xlink:href="#as"/><use transform="matrix(0.008680555555555556,0,0,0.008680555555555556,84.07118055555556,0)" xlink:href="#aw"/><use transform="matrix(0.008680555555555556,0,0,0.008680555555555556,94.95659722222223,0)" xlink:href="#as"/></g><path d="M126 0v-134l627-806v-11H146v-167h839v143L376-178v11h629V0H126" id="bf"/><g id="V"><use transform="matrix(0.008680555555555556,0,0,0.008680555555555556,0,0)" xlink:href="#aw"/><use transform="matrix(0.008680555555555556,0,0,0.008680555555555556,11.145833333333334,0)" xlink:href="#aB"/><use transform="matrix(0.008680555555555556,0,0,0.008680555555555556,16.961805555555557,0)" xlink:href="#aH"/><use transform="matrix(0.008680555555555556,0,0,0.008680555555555556,25.66840277777778,0)" xlink:href="#aI"/><use transform="matrix(0.008680555555555556,0,0,0.008680555555555556,36.55381944444444,0)" xlink:href="#at"/><use transform="matrix(0.008680555555555556,0,0,0.008680555555555556,43.24652777777778,0)" xlink:href="#as"/><use transform="matrix(0.008680555555555556,0,0,0.008680555555555556,53.22916666666667,0)" xlink:href="#bf"/><use transform="matrix(0.008680555555555556,0,0,0.008680555555555556,62.78645833333334,0)" xlink:href="#av"/></g><g id="W"><use transform="matrix(0.008680555555555556,0,0,0.008680555555555556,0,0)" xlink:href="#aw"/><use transform="matrix(0.008680555555555556,0,0,0.008680555555555556,11.145833333333334,0)" xlink:href="#aB"/><use transform="matrix(0.008680555555555556,0,0,0.008680555555555556,16.961805555555557,0)" xlink:href="#aH"/><use transform="matrix(0.008680555555555556,0,0,0.008680555555555556,25.069444444444446,0)" xlink:href="#aR"/><use transform="matrix(0.008680555555555556,0,0,0.008680555555555556,31.649305555555557,0)" xlink:href="#au"/><use transform="matrix(0.008680555555555556,0,0,0.008680555555555556,35.954861111111114,0)" xlink:href="#aA"/><use transform="matrix(0.008680555555555556,0,0,0.008680555555555556,46.458333333333336,0)" xlink:href="#as"/><use transform="matrix(0.008680555555555556,0,0,0.008680555555555556,56.44097222222222,0)" xlink:href="#aU"/><use transform="matrix(0.008680555555555556,0,0,0.008680555555555556,60.746527777777786,0)" xlink:href="#au"/><use transform="matrix(0.008680555555555556,0,0,0.008680555555555556,65.05208333333334,0)" xlink:href="#bf"/><use transform="matrix(0.008680555555555556,0,0,0.008680555555555556,74.86979166666667,0)" xlink:href="#as"/><use transform="matrix(0.008680555555555556,0,0,0.008680555555555556,84.85243055555556,0)" xlink:href="#aw"/><use transform="matrix(0.008680555555555556,0,0,0.008680555555555556,95.73784722222223,0)" xlink:href="#as"/></g><g id="X"><use transform="matrix(0.008680555555555556,0,0,0.008680555555555556,0,0)" xlink:href="#aN"/><use transform="matrix(0.008680555555555556,0,0,0.008680555555555556,10.512152777777779,0)" xlink:href="#au"/><use transform="matrix(0.008680555555555556,0,0,0.008680555555555556,14.817708333333334,0)" xlink:href="#ar"/><use transform="matrix(0.008680555555555556,0,0,0.008680555555555556,24.20138888888889,0)" xlink:href="#aB"/><use transform="matrix(0.008680555555555556,0,0,0.008680555555555556,29.84375,0)" xlink:href="#av"/><use transform="matrix(0.008680555555555556,0,0,0.008680555555555556,40.50347222222222,0)" xlink:href="#at"/><use transform="matrix(0.008680555555555556,0,0,0.008680555555555556,47.473958333333336,0)" xlink:href="#au"/><use transform="matrix(0.008680555555555556,0,0,0.008680555555555556,51.77951388888889,0)" xlink:href="#aG"/><use transform="matrix(0.008680555555555556,0,0,0.008680555555555556,61.93576388888889,0)" xlink:href="#av"/><use transform="matrix(0.008680555555555556,0,0,0.008680555555555556,72.59548611111111,0)" xlink:href="#aH"/><use transform="matrix(0.008680555555555556,0,0,0.008680555555555556,81.30208333333331,0)" xlink:href="#aK"/><use transform="matrix(0.008680555555555556,0,0,0.008680555555555556,96.875,0)" xlink:href="#av"/><use transform="matrix(0.008680555555555556,0,0,0.008680555555555556,107.1875,0)" xlink:href="#aM"/><use transform="matrix(0.008680555555555556,0,0,0.008680555555555556,117.17881944444444,0)" xlink:href="#au"/><use transform="matrix(0.008680555555555556,0,0,0.008680555555555556,121.484375,0)" xlink:href="#aK"/><use transform="matrix(0.008680555555555556,0,0,0.008680555555555556,137.05729166666666,0)" xlink:href="#aL"/><use transform="matrix(0.008680555555555556,0,0,0.008680555555555556,147.421875,0)" xlink:href="#aA"/><use transform="matrix(0.008680555555555556,0,0,0.008680555555555556,157.92534722222223,0)" xlink:href="#aB"/><use transform="matrix(0.008680555555555556,0,0,0.008680555555555556,163.828125,0)" xlink:href="#as"/><use transform="matrix(0.008680555555555556,0,0,0.008680555555555556,173.81076388888889,0)" xlink:href="#aG"/><use transform="matrix(0.008680555555555556,0,0,0.008680555555555556,184.140625,0)" xlink:href="#as"/><use transform="matrix(0.008680555555555556,0,0,0.008680555555555556,194.12326388888889,0)" xlink:href="#av"/><use transform="matrix(0.008680555555555556,0,0,0.008680555555555556,204.78298611111111,0)" xlink:href="#aH"/><use transform="matrix(0.008680555555555556,0,0,0.008680555555555556,212.890625,0)" xlink:href="#ar"/><use transform="matrix(0.008680555555555556,0,0,0.008680555555555556,222.27430555555554,0)" xlink:href="#av"/><use transform="matrix(0.008680555555555556,0,0,0.008680555555555556,232.93402777777774,0)" xlink:href="#aU"/><use transform="matrix(0.008680555555555556,0,0,0.008680555555555556,237.23958333333331,0)" xlink:href="#au"/><use transform="matrix(0.008680555555555556,0,0,0.008680555555555556,241.54513888888886,0)" xlink:href="#aG"/><use transform="matrix(0.008680555555555556,0,0,0.008680555555555556,251.70138888888886,0)" xlink:href="#au"/><use transform="matrix(0.008680555555555556,0,0,0.008680555555555556,256.0069444444444,0)" xlink:href="#aB"/><use transform="matrix(0.008680555555555556,0,0,0.008680555555555556,261.9097222222222,0)" xlink:href="#as"/><use transform="matrix(0.008680555555555556,0,0,0.008680555555555556,271.8923611111111,0)" xlink:href="#aG"/><use transform="matrix(0.008680555555555556,0,0,0.008680555555555556,282.2222222222222,0)" xlink:href="#as"/><use transform="matrix(0.008680555555555556,0,0,0.008680555555555556,292.2048611111111,0)" xlink:href="#av"/></g><g id="Y"><use transform="matrix(0.008680555555555556,0,0,0.008680555555555556,0,0)" xlink:href="#au"/><use transform="matrix(0.008680555555555556,0,0,0.008680555555555556,4.305555555555555,0)" xlink:href="#aw"/><use transform="matrix(0.008680555555555556,0,0,0.008680555555555556,15.190972222222223,0)" xlink:href="#aH"/><use transform="matrix(0.008680555555555556,0,0,0.008680555555555556,23.298611111111118,0)" xlink:href="#ar"/><use transform="matrix(0.008680555555555556,0,0,0.008680555555555556,32.68229166666667,0)" xlink:href="#av"/><use transform="matrix(0.008680555555555556,0,0,0.008680555555555556,43.34201388888889,0)" xlink:href="#aU"/><use transform="matrix(0.008680555555555556,0,0,0.008680555555555556,47.64756944444445,0)" xlink:href="#au"/><use transform="matrix(0.008680555555555556,0,0,0.008680555555555556,51.95312500000001,0)" xlink:href="#aG"/><use transform="matrix(0.008680555555555556,0,0,0.008680555555555556,62.10937500000001,0)" xlink:href="#au"/><use transform="matrix(0.008680555555555556,0,0,0.008680555555555556,66.41493055555556,0)" xlink:href="#aB"/><use transform="matrix(0.008680555555555556,0,0,0.008680555555555556,72.31770833333334,0)" xlink:href="#as"/><use transform="matrix(0.008680555555555556,0,0,0.008680555555555556,82.30034722222223,0)" xlink:href="#aG"/><use transform="matrix(0.008680555555555556,0,0,0.008680555555555556,92.63020833333334,0)" xlink:href="#as"/><use transform="matrix(0.008680555555555556,0,0,0.008680555555555556,102.61284722222223,0)" xlink:href="#av"/></g><g id="Z"><use transform="matrix(0.008680555555555556,0,0,0.008680555555555556,0,0)" xlink:href="#au"/><use transform="matrix(0.008680555555555556,0,0,0.008680555555555556,4.305555555555555,0)" xlink:href="#aw"/><use transform="matrix(0.008680555555555556,0,0,0.008680555555555556,15.190972222222223,0)" xlink:href="#aH"/><use transform="matrix(0.008680555555555556,0,0,0.008680555555555556,23.897569444444446,0)" xlink:href="#at"/><use transform="matrix(0.008680555555555556,0,0,0.008680555555555556,30.295138888888893,0)" xlink:href="#aL"/><use transform="matrix(0.008680555555555556,0,0,0.008680555555555556,40.65972222222223,0)" xlink:href="#ar"/><use transform="matrix(0.008680555555555556,0,0,0.008680555555555556,50.043402777777786,0)" xlink:href="#aI"/><use transform="matrix(0.008680555555555556,0,0,0.008680555555555556,60.92881944444446,0)" xlink:href="#av"/><use transform="matrix(0.008680555555555556,0,0,0.008680555555555556,71.58854166666669,0)" xlink:href="#aA"/><use transform="matrix(0.008680555555555556,0,0,0.008680555555555556,82.09201388888891,0)" xlink:href="#ar"/><use transform="matrix(0.008680555555555556,0,0,0.008680555555555556,91.47569444444447,0)" xlink:href="#as"/><use transform="matrix(0.008680555555555556,0,0,0.008680555555555556,101.19791666666669,0)" xlink:href="#aM"/><use transform="matrix(0.008680555555555556,0,0,0.008680555555555556,110.8420138888889,0)" xlink:href="#aL"/><use transform="matrix(0.008680555555555556,0,0,0.008680555555555556,121.20659722222223,0)" xlink:href="#aU"/></g><g id="aa"><use transform="matrix(0.008680555555555556,0,0,0.008680555555555556,0,0)" xlink:href="#aG"/><use transform="matrix(0.008680555555555556,0,0,0.008680555555555556,10.15625,0)" xlink:href="#av"/><use transform="matrix(0.008680555555555556,0,0,0.008680555555555556,20.81597222222222,0)" xlink:href="#aK"/><use transform="matrix(0.008680555555555556,0,0,0.008680555555555556,36.388888888888886,0)" xlink:href="#aL"/><use transform="matrix(0.008680555555555556,0,0,0.008680555555555556,46.75347222222222,0)" xlink:href="#aA"/><use transform="matrix(0.008680555555555556,0,0,0.008680555555555556,57.256944444444436,0)" xlink:href="#aB"/><use transform="matrix(0.008680555555555556,0,0,0.008680555555555556,63.15972222222223,0)" xlink:href="#as"/><use transform="matrix(0.008680555555555556,0,0,0.008680555555555556,73.14236111111111,0)" xlink:href="#at"/><use transform="matrix(0.008680555555555556,0,0,0.008680555555555556,80.11284722222221,0)" xlink:href="#au"/><use transform="matrix(0.008680555555555556,0,0,0.008680555555555556,84.41840277777777,0)" xlink:href="#av"/></g><g id="ab"><use transform="matrix(0.008680555555555556,0,0,0.008680555555555556,0,0)" xlink:href="#ar"/><use transform="matrix(0.008680555555555556,0,0,0.008680555555555556,9.383680555555555,0)" xlink:href="#aB"/><use transform="matrix(0.008680555555555556,0,0,0.008680555555555556,15.286458333333332,0)" xlink:href="#as"/><use transform="matrix(0.008680555555555556,0,0,0.008680555555555556,25.269097222222225,0)" xlink:href="#aB"/><use transform="matrix(0.008680555555555556,0,0,0.008680555555555556,31.085069444444443,0)" xlink:href="#aq"/><use transform="matrix(0.008680555555555556,0,0,0.008680555555555556,41.59722222222222,0)" xlink:href="#ar"/><use transform="matrix(0.008680555555555556,0,0,0.008680555555555556,50.98090277777778,0)" xlink:href="#aH"/><use transform="matrix(0.008680555555555556,0,0,0.008680555555555556,59.08854166666667,0)" xlink:href="#as"/><use transform="matrix(0.008680555555555556,0,0,0.008680555555555556,69.07118055555556,0)" xlink:href="#aA"/><use transform="matrix(0.008680555555555556,0,0,0.008680555555555556,79.57465277777779,0)" xlink:href="#aB"/><use transform="matrix(0.008680555555555556,0,0,0.008680555555555556,85.21701388888889,0)" xlink:href="#aL"/><use transform="matrix(0.008680555555555556,0,0,0.008680555555555556,95.58159722222223,0)" xlink:href="#at"/><use transform="matrix(0.008680555555555556,0,0,0.008680555555555556,102.55208333333333,0)" xlink:href="#au"/><use transform="matrix(0.008680555555555556,0,0,0.008680555555555556,106.85763888888887,0)" xlink:href="#av"/><use transform="matrix(0.008680555555555556,0,0,0.008680555555555556,117.51736111111111,0)" xlink:href="#at"/></g><g id="ac"><use transform="matrix(0.008680555555555556,0,0,0.008680555555555556,0,0)" xlink:href="#ar"/><use transform="matrix(0.008680555555555556,0,0,0.008680555555555556,9.383680555555555,0)" xlink:href="#aB"/><use transform="matrix(0.008680555555555556,0,0,0.008680555555555556,15.286458333333332,0)" xlink:href="#as"/><use transform="matrix(0.008680555555555556,0,0,0.008680555555555556,25.269097222222225,0)" xlink:href="#aB"/><use transform="matrix(0.008680555555555556,0,0,0.008680555555555556,31.085069444444443,0)" xlink:href="#aq"/><use transform="matrix(0.008680555555555556,0,0,0.008680555555555556,41.59722222222222,0)" xlink:href="#ar"/><use transform="matrix(0.008680555555555556,0,0,0.008680555555555556,50.98090277777778,0)" xlink:href="#aH"/><use transform="matrix(0.008680555555555556,0,0,0.008680555555555556,59.08854166666667,0)" xlink:href="#as"/><use transform="matrix(0.008680555555555556,0,0,0.008680555555555556,69.07118055555556,0)" xlink:href="#aB"/><use transform="matrix(0.008680555555555556,0,0,0.008680555555555556,74.88715277777779,0)" xlink:href="#aq"/><use transform="matrix(0.008680555555555556,0,0,0.008680555555555556,85.39930555555557,0)" xlink:href="#as"/><use transform="matrix(0.008680555555555556,0,0,0.008680555555555556,95.38194444444447,0)" xlink:href="#aU"/></g><g id="ad"><use transform="matrix(0.008680555555555556,0,0,0.008680555555555556,0,0)" xlink:href="#aw"/><use transform="matrix(0.008680555555555556,0,0,0.008680555555555556,11.145833333333334,0)" xlink:href="#aB"/><use transform="matrix(0.008680555555555556,0,0,0.008680555555555556,16.961805555555557,0)" xlink:href="#aH"/><use transform="matrix(0.008680555555555556,0,0,0.008680555555555556,25.66840277777778,0)" xlink:href="#aK"/><use transform="matrix(0.008680555555555556,0,0,0.008680555555555556,41.24131944444444,0)" xlink:href="#av"/><use transform="matrix(0.008680555555555556,0,0,0.008680555555555556,51.55381944444445,0)" xlink:href="#aM"/><use transform="matrix(0.008680555555555556,0,0,0.008680555555555556,61.545138888888886,0)" xlink:href="#au"/><use transform="matrix(0.008680555555555556,0,0,0.008680555555555556,65.85069444444444,0)" xlink:href="#aK"/><use transform="matrix(0.008680555555555556,0,0,0.008680555555555556,81.42361111111111,0)" xlink:href="#aL"/><use transform="matrix(0.008680555555555556,0,0,0.008680555555555556,91.78819444444444,0)" xlink:href="#aA"/><use transform="matrix(0.008680555555555556,0,0,0.008680555555555556,102.29166666666667,0)" xlink:href="#aB"/><use transform="matrix(0.008680555555555556,0,0,0.008680555555555556,108.19444444444444,0)" xlink:href="#as"/><use transform="matrix(0.008680555555555556,0,0,0.008680555555555556,118.17708333333334,0)" xlink:href="#aG"/><use transform="matrix(0.008680555555555556,0,0,0.008680555555555556,128.50694444444446,0)" xlink:href="#as"/><use transform="matrix(0.008680555555555556,0,0,0.008680555555555556,138.48958333333334,0)" xlink:href="#av"/></g><path d="M65 0l393-574-370-544h210c88 136 192 297 267 435 67-142 176-302 264-435h206L661-564 1053 0H844c-94-144-206-310-287-458C484-308 366-142 273 0H65" id="bg"/><g id="ae"><use transform="matrix(0.008680555555555556,0,0,0.008680555555555556,0,0)" xlink:href="#as"/><use transform="matrix(0.008680555555555556,0,0,0.008680555555555556,9.98263888888889,0)" xlink:href="#aA"/><use transform="matrix(0.008680555555555556,0,0,0.008680555555555556,20.486111111111114,0)" xlink:href="#aL"/><use transform="matrix(0.008680555555555556,0,0,0.008680555555555556,30.451388888888893,0)" xlink:href="#bg"/><use transform="matrix(0.008680555555555556,0,0,0.008680555555555556,39.75694444444444,0)" xlink:href="#av"/><use transform="matrix(0.008680555555555556,0,0,0.008680555555555556,50.416666666666664,0)" xlink:href="#ar"/></g><path d="M1096 418H916v-591h-14C865-111 790 24 577 24c-279 0-473-224-473-580 0-354 195-576 474-576 218 0 287 134 324 193h20v-179h174V418zM604-137c203 0 314-172 314-421 0-247-108-413-314-413-212 0-317 181-317 413 0 235 108 421 317 421" id="bh"/><g id="af"><use transform="matrix(0.008680555555555556,0,0,0.008680555555555556,0,0)" xlink:href="#as"/><use transform="matrix(0.008680555555555556,0,0,0.008680555555555556,9.98263888888889,0)" xlink:href="#at"/><use transform="matrix(0.008680555555555556,0,0,0.008680555555555556,16.380208333333336,0)" xlink:href="#bh"/><use transform="matrix(0.008680555555555556,0,0,0.008680555555555556,27.265625000000004,0)" xlink:href="#aq"/><use transform="matrix(0.008680555555555556,0,0,0.008680555555555556,37.777777777777786,0)" xlink:href="#au"/><use transform="matrix(0.008680555555555556,0,0,0.008680555555555556,42.08333333333334,0)" xlink:href="#aM"/><use transform="matrix(0.008680555555555556,0,0,0.008680555555555556,51.727430555555564,0)" xlink:href="#av"/></g><g id="ag"><use transform="matrix(0.008680555555555556,0,0,0.008680555555555556,0,0)" xlink:href="#aB"/><use transform="matrix(0.008680555555555556,0,0,0.008680555555555556,5.815972222222222,0)" xlink:href="#au"/><use transform="matrix(0.008680555555555556,0,0,0.008680555555555556,10.121527777777779,0)" xlink:href="#aI"/><use transform="matrix(0.008680555555555556,0,0,0.008680555555555556,21.006944444444446,0)" xlink:href="#av"/><use transform="matrix(0.008680555555555556,0,0,0.008680555555555556,31.66666666666667,0)" xlink:href="#aH"/><use transform="matrix(0.008680555555555556,0,0,0.008680555555555556,39.77430555555556,0)" xlink:href="#as"/><use transform="matrix(0.008680555555555556,0,0,0.008680555555555556,49.75694444444445,0)" xlink:href="#at"/><use transform="matrix(0.008680555555555556,0,0,0.008680555555555556,56.15451388888889,0)" xlink:href="#bh"/><use transform="matrix(0.008680555555555556,0,0,0.008680555555555556,67.03993055555556,0)" xlink:href="#aq"/><use transform="matrix(0.008680555555555556,0,0,0.008680555555555556,77.55208333333334,0)" xlink:href="#au"/><use transform="matrix(0.008680555555555556,0,0,0.008680555555555556,81.85763888888889,0)" xlink:href="#aM"/><use transform="matrix(0.008680555555555556,0,0,0.008680555555555556,91.50173611111111,0)" xlink:href="#av"/></g><g id="ah"><use transform="matrix(0.008680555555555556,0,0,0.008680555555555556,0,0)" xlink:href="#aM"/><use transform="matrix(0.008680555555555556,0,0,0.008680555555555556,9.90451388888889,0)" xlink:href="#as"/><use transform="matrix(0.008680555555555556,0,0,0.008680555555555556,19.88715277777778,0)" xlink:href="#at"/><use transform="matrix(0.008680555555555556,0,0,0.008680555555555556,26.284722222222225,0)" xlink:href="#aG"/><use transform="matrix(0.008680555555555556,0,0,0.008680555555555556,36.44097222222222,0)" xlink:href="#aN"/><use transform="matrix(0.008680555555555556,0,0,0.008680555555555556,46.953125,0)" xlink:href="#as"/><use transform="matrix(0.008680555555555556,0,0,0.008680555555555556,56.935763888888886,0)" xlink:href="#at"/><use transform="matrix(0.008680555555555556,0,0,0.008680555555555556,63.62847222222223,0)" xlink:href="#aC"/><use transform="matrix(0.008680555555555556,0,0,0.008680555555555556,70.11284722222223,0)" xlink:href="#aP"/><use transform="matrix(0.008680555555555556,0,0,0.008680555555555556,80.92013888888889,0)" xlink:href="#aQ"/><use transform="matrix(0.008680555555555556,0,0,0.008680555555555556,92.13541666666669,0)" xlink:href="#aF"/></g><g id="ai"><use transform="matrix(0.008680555555555556,0,0,0.008680555555555556,0,0)" xlink:href="#aw"/><use transform="matrix(0.008680555555555556,0,0,0.008680555555555556,11.145833333333334,0)" xlink:href="#aB"/><use transform="matrix(0.008680555555555556,0,0,0.008680555555555556,16.961805555555557,0)" xlink:href="#aH"/><use transform="matrix(0.008680555555555556,0,0,0.008680555555555556,25.069444444444446,0)" xlink:href="#aq"/><use transform="matrix(0.008680555555555556,0,0,0.008680555555555556,35.58159722222223,0)" xlink:href="#aI"/><use transform="matrix(0.008680555555555556,0,0,0.008680555555555556,46.4670138888889,0)" xlink:href="#aU"/><use transform="matrix(0.008680555555555556,0,0,0.008680555555555556,50.77256944444446,0)" xlink:href="#av"/><use transform="matrix(0.008680555555555556,0,0,0.008680555555555556,61.60590277777779,0)" xlink:href="#as"/><use transform="matrix(0.008680555555555556,0,0,0.008680555555555556,71.58854166666669,0)" xlink:href="#aw"/></g><g id="aj"><use transform="matrix(0.008680555555555556,0,0,0.008680555555555556,0,0)" xlink:href="#bd"/><use transform="matrix(0.008680555555555556,0,0,0.008680555555555556,10.052083333333334,0)" xlink:href="#av"/><use transform="matrix(0.008680555555555556,0,0,0.008680555555555556,20.711805555555557,0)" xlink:href="#ay"/><use transform="matrix(0.008680555555555556,0,0,0.008680555555555556,31.614583333333336,0)" xlink:href="#ar"/></g><g id="ak"><use transform="matrix(0.008680555555555556,0,0,0.008680555555555556,0,0)" xlink:href="#au"/><use transform="matrix(0.008680555555555556,0,0,0.008680555555555556,4.305555555555555,0)" xlink:href="#aw"/><use transform="matrix(0.008680555555555556,0,0,0.008680555555555556,15.190972222222223,0)" xlink:href="#aH"/><use transform="matrix(0.008680555555555556,0,0,0.008680555555555556,23.298611111111118,0)" xlink:href="#aq"/><use transform="matrix(0.008680555555555556,0,0,0.008680555555555556,33.81076388888889,0)" xlink:href="#ar"/><use transform="matrix(0.008680555555555556,0,0,0.008680555555555556,43.19444444444444,0)" xlink:href="#aq"/><use transform="matrix(0.008680555555555556,0,0,0.008680555555555556,53.70659722222222,0)" xlink:href="#as"/><use transform="matrix(0.008680555555555556,0,0,0.008680555555555556,63.689236111111114,0)" xlink:href="#at"/><use transform="matrix(0.008680555555555556,0,0,0.008680555555555556,70.65972222222223,0)" xlink:href="#au"/><use transform="matrix(0.008680555555555556,0,0,0.008680555555555556,74.96527777777779,0)" xlink:href="#av"/></g><g id="al"><use transform="matrix(0.008680555555555556,0,0,0.008680555555555556,0,0)" xlink:href="#aA"/><use transform="matrix(0.008680555555555556,0,0,0.008680555555555556,10.503472222222223,0)" xlink:href="#av"/><use transform="matrix(0.008680555555555556,0,0,0.008680555555555556,21.163194444444446,0)" xlink:href="#aK"/><use transform="matrix(0.008680555555555556,0,0,0.008680555555555556,36.736111111111114,0)" xlink:href="#aL"/><use transform="matrix(0.008680555555555556,0,0,0.008680555555555556,47.10069444444445,0)" xlink:href="#aH"/><use transform="matrix(0.008680555555555556,0,0,0.008680555555555556,55.20833333333334,0)" xlink:href="#aB"/><use transform="matrix(0.008680555555555556,0,0,0.008680555555555556,61.11111111111112,0)" xlink:href="#as"/><use transform="matrix(0.008680555555555556,0,0,0.008680555555555556,71.09375000000001,0)" xlink:href="#ba"/><use transform="matrix(0.008680555555555556,0,0,0.008680555555555556,81.97916666666669,0)" xlink:href="#aL"/><use transform="matrix(0.008680555555555556,0,0,0.008680555555555556,92.34375000000001,0)" xlink:href="#aU"/><use transform="matrix(0.008680555555555556,0,0,0.008680555555555556,96.64930555555557,0)" xlink:href="#as"/></g><g id="am"><use transform="matrix(0.008680555555555556,0,0,0.008680555555555556,0,0)" xlink:href="#as"/><use transform="matrix(0.008680555555555556,0,0,0.008680555555555556,9.98263888888889,0)" xlink:href="#aG"/><use transform="matrix(0.008680555555555556,0,0,0.008680555555555556,20.3125,0)" xlink:href="#as"/><use transform="matrix(0.008680555555555556,0,0,0.008680555555555556,30.29513888888889,0)" xlink:href="#av"/></g><g id="an"><use transform="matrix(0.008680555555555556,0,0,0.008680555555555556,0,0)" xlink:href="#aw"/><use transform="matrix(0.008680555555555556,0,0,0.008680555555555556,10.885416666666668,0)" xlink:href="#as"/><use transform="matrix(0.008680555555555556,0,0,0.008680555555555556,20.868055555555557,0)" xlink:href="#aw"/><use transform="matrix(0.008680555555555556,0,0,0.008680555555555556,31.753472222222225,0)" xlink:href="#av"/><use transform="matrix(0.008680555555555556,0,0,0.008680555555555556,42.41319444444444,0)" xlink:href="#ar"/><use transform="matrix(0.008680555555555556,0,0,0.008680555555555556,51.79687500000001,0)" xlink:href="#aH"/><use transform="matrix(0.008680555555555556,0,0,0.008680555555555556,59.9045138888889,0)" xlink:href="#as"/><use transform="matrix(0.008680555555555556,0,0,0.008680555555555556,69.88715277777779,0)" xlink:href="#aU"/><use transform="matrix(0.008680555555555556,0,0,0.008680555555555556,74.45312500000001,0)" xlink:href="#aB"/><use transform="matrix(0.008680555555555556,0,0,0.008680555555555556,80.09548611111113,0)" xlink:href="#aL"/><use transform="matrix(0.008680555555555556,0,0,0.008680555555555556,90.46006944444447,0)" xlink:href="#at"/><use transform="matrix(0.008680555555555556,0,0,0.008680555555555556,97.15277777777779,0)" xlink:href="#as"/><use transform="matrix(0.008680555555555556,0,0,0.008680555555555556,107.13541666666667,0)" xlink:href="#aw"/><use transform="matrix(0.008680555555555556,0,0,0.008680555555555556,118.02083333333334,0)" xlink:href="#av"/><use transform="matrix(0.008680555555555556,0,0,0.008680555555555556,128.68055555555557,0)" xlink:href="#ar"/></g><path d="M545 20c-263 0-445-160-445-446v-80h190v80c0 182 102 279 255 279 152 0 254-97 254-279v-1064h190v1064c0 286-181 446-444 446" id="bi"/><g id="ao"><use transform="matrix(0.008680555555555556,0,0,0.008680555555555556,0,0)" xlink:href="#bi"/><use transform="matrix(0.008680555555555556,0,0,0.008680555555555556,10.147569444444445,0)" xlink:href="#aY"/><use transform="matrix(0.008680555555555556,0,0,0.008680555555555556,21.553819444444443,0)" xlink:href="#bc"/><use transform="matrix(0.008680555555555556,0,0,0.008680555555555556,35.14756944444444,0)" xlink:href="#be"/></g><g id="ap"><use transform="matrix(0.008680555555555556,0,0,0.008680555555555556,0,0)" xlink:href="#aw"/><use transform="matrix(0.008680555555555556,0,0,0.008680555555555556,11.145833333333334,0)" xlink:href="#aB"/><use transform="matrix(0.008680555555555556,0,0,0.008680555555555556,16.961805555555557,0)" xlink:href="#aH"/><use transform="matrix(0.008680555555555556,0,0,0.008680555555555556,25.069444444444446,0)" xlink:href="#aL"/><use transform="matrix(0.008680555555555556,0,0,0.008680555555555556,35.03472222222222,0)" xlink:href="#bg"/><use transform="matrix(0.008680555555555556,0,0,0.008680555555555556,44.34027777777777,0)" xlink:href="#aL"/><use transform="matrix(0.008680555555555556,0,0,0.008680555555555556,54.70486111111111,0)" xlink:href="#aG"/><use transform="matrix(0.008680555555555556,0,0,0.008680555555555556,64.86111111111111,0)" xlink:href="#aq"/><use transform="matrix(0.008680555555555556,0,0,0.008680555555555556,75.37326388888889,0)" xlink:href="#aG"/><use transform="matrix(0.008680555555555556,0,0,0.008680555555555556,85.703125,0)" xlink:href="#as"/><use transform="matrix(0.008680555555555556,0,0,0.008680555555555556,95.6857638888889,0)" xlink:href="#av"/></g></defs></g></svg>